# Blender 3.6.1
# www.blender.org
mtllib DoorWall1.mtl
o DoorWall.001
v -0.008740 0.000000 1.084568
v -0.008740 0.015497 1.084568
v -0.008740 0.015497 1.157681
v -0.008740 0.000000 1.157681
v -0.017694 0.022415 0.905213
v -0.008740 0.015497 0.905213
v -0.008740 0.015497 0.832097
v -0.017694 0.022415 0.832097
v -0.036742 0.374505 1.084568
v -0.036742 0.374505 1.157681
v -0.036742 0.486425 1.157681
v -0.036742 0.486425 1.084568
v -0.036742 0.015497 0.905213
v -0.036742 0.022415 0.905213
v -0.036742 0.022415 0.832097
v -0.036742 0.015497 0.832097
v -0.036742 0.000000 1.084568
v -0.036742 0.000000 1.157681
v -0.036742 0.015497 1.157681
v -0.036742 0.015497 1.084568
v -0.036742 0.486425 0.905213
v -0.017694 0.486425 0.905213
v -0.017694 0.486425 0.832097
v -0.036742 0.486425 0.832097
v -0.008740 0.015497 1.157681
v -0.036742 0.015497 1.157681
v -0.036742 0.000000 1.157681
v -0.008740 0.000000 1.157681
v -0.017694 0.374505 1.157681
v -0.036742 0.374505 1.157681
v -0.036742 0.022415 1.157681
v -0.017694 0.022415 1.157681
v -0.017694 0.022415 1.157681
v -0.036742 0.022415 1.157681
v -0.008740 0.015497 0.832097
v -0.008740 0.000000 0.832097
v -0.036742 0.000000 0.832097
v -0.036742 0.015497 0.832097
v -0.017694 0.374505 0.832097
v -0.017694 0.022415 0.832097
v -0.036742 0.022415 0.832097
v -0.036742 0.374505 0.832097
v -0.017694 0.022415 0.832097
v -0.036742 0.022415 0.832097
v -0.017694 0.374505 1.084568
v -0.017694 0.486425 1.084568
v -0.017694 0.486425 1.157681
v -0.017694 0.374505 1.157681
v -0.017694 0.374505 0.832097
v -0.017694 0.486425 0.832097
v -0.017694 0.486425 0.905213
v -0.017694 0.374505 0.905213
v -0.036742 0.000000 0.832097
v -0.036742 0.000000 0.905213
v -0.036742 0.374505 0.832097
v -0.036742 0.374505 0.905213
v -0.036742 0.486425 0.905213
v -0.036742 0.486425 0.832097
v -0.008740 0.000000 0.832097
v -0.008740 0.015497 0.832097
v -0.008740 0.015497 0.905213
v -0.008740 0.000000 0.905213
v -0.017694 0.022415 1.157681
v -0.008740 0.015497 1.157681
v -0.008740 0.015497 1.084568
v -0.017694 0.022415 1.084568
v -0.036742 0.022415 1.157681
v -0.036742 0.022415 1.084568
v -0.036742 0.486425 1.157681
v -0.017694 0.486425 1.157681
v -0.017694 0.486425 1.084568
v -0.036742 0.486425 1.084568
v -0.036742 0.022415 0.832097
v -0.036742 0.022415 0.905213
v -0.017694 0.022415 0.832097
v -0.017694 0.022415 0.905213
v -0.017694 0.022415 1.084568
v -0.017694 0.022415 1.157681
v -0.017694 0.486425 0.832097
v -0.036742 0.486425 0.832097
v -0.017694 0.486425 1.157681
v -0.036742 0.486425 1.157681
v -0.036742 0.022415 1.084568
v -0.036742 0.022415 1.157681
v -0.017694 0.022415 1.075096
v -0.017694 0.015497 1.075096
v -0.036742 0.365034 0.914684
v -0.017694 0.365034 0.914684
v -0.017694 0.365034 1.075096
v -0.036742 0.365034 1.075096
v -0.036742 0.365034 0.914684
v -0.036742 0.365034 1.075096
v -0.036742 0.374505 1.084568
v -0.036742 0.374505 0.905213
v -0.017694 0.374505 1.084568
v -0.017694 0.365034 1.075096
v -0.017694 0.365034 0.914684
v -0.017694 0.374505 0.905213
v -0.036742 0.015497 1.075096
v -0.036742 0.022415 1.075096
v -0.017694 0.022415 1.075096
v -0.017694 0.015497 1.075096
v -0.036742 0.022415 0.914684
v -0.017694 0.022415 0.914684
v -0.017694 0.365034 0.914684
v -0.036742 0.365034 0.914684
v -0.036742 0.022415 0.914684
v -0.036742 0.022415 0.905213
v -0.036742 0.015497 1.084568
v -0.036742 0.015497 1.075096
v -0.036742 0.000000 1.075096
v -0.036742 0.000000 1.084568
v -0.036742 0.000000 1.075096
v -0.017694 0.000000 1.075096
v -0.008740 0.015497 1.084568
v -0.008740 0.000000 1.084568
v -0.017694 0.000000 1.075096
v -0.017694 0.015497 1.075096
v -0.017694 0.022415 1.075096
v -0.036742 0.022415 1.075096
v -0.036742 0.365034 1.075096
v -0.017694 0.365034 1.075096
v -0.036742 0.015497 0.914684
v -0.036742 0.022415 0.914684
v -0.036742 0.022415 0.905213
v -0.036742 0.015497 0.905213
v -0.036742 0.015497 0.914684
v -0.017694 0.015497 0.914684
v -0.017694 0.022415 0.914684
v -0.036742 0.022415 0.914684
v -0.036742 0.000000 0.914684
v -0.017694 0.000000 0.914684
v -0.036742 0.000000 0.914684
v -0.036742 0.000000 0.905213
v -0.008740 0.015497 0.905213
v -0.017694 0.015497 0.914684
v -0.017694 0.000000 0.914684
v -0.008740 0.000000 0.905213
v -0.017694 0.022415 0.914684
v -0.017694 0.015497 0.914684
v -0.017694 0.022415 0.914684
v -0.017694 0.022415 0.905213
v -0.036742 0.022415 1.084568
v -0.036742 0.022415 1.075096
v -0.017694 0.022415 1.084568
v -0.017694 0.022415 1.075096
v -0.036742 0.022415 1.084568
v -0.036742 0.022415 1.075096
vn 1.0000 -0.0000 -0.0000
vn 0.6114 0.7913 -0.0000
vn 0.7184 0.6691 0.1904
vn 0.6977 0.7011 0.1475
vn -1.0000 -0.0000 -0.0000
vn -0.0000 1.0000 -0.0000
vn -0.0000 -0.0000 1.0000
vn -0.0000 -0.0000 -1.0000
vn 0.7183 0.6691 -0.1904
vn 0.6977 0.7010 -0.1475
vn 0.7803 0.5050 -0.3689
vn -0.0000 -1.0000 -0.0000
vn 0.7267 -0.0000 -0.6870
vn 0.7267 -0.0000 0.6870
vn 0.7803 0.5050 0.3689
vt 0.425151 0.651664
vt 0.426300 0.564757
vt 0.443937 0.567781
vt 0.444996 0.651664
vt 0.458754 0.651411
vt 0.460705 0.565167
vt 0.473616 0.567606
vt 0.473215 0.651602
vt 0.298646 0.548680
vt 0.298646 0.416393
vt 0.385065 0.416393
vt 0.385065 0.548680
vt 0.500223 0.549146
vt 0.500223 0.635568
vt 0.492046 0.635568
vt 0.492046 0.549146
vt 0.527183 0.549146
vt 0.545500 0.549146
vt 0.545500 0.635565
vt 0.527183 0.635565
vt 0.839771 0.385065
vt 0.839771 0.298643
vt 0.862285 0.298643
vt 0.862285 0.385065
vt 0.572460 0.582244
vt 0.554143 0.582244
vt 0.554143 0.549146
vt 0.572460 0.549146
vt 0.839305 0.000233
vt 0.839305 0.416393
vt 0.816791 0.416393
vt 0.816791 0.000233
vt 0.545966 0.571660
vt 0.545966 0.549146
vt 0.591243 0.549146
vt 0.591243 0.582244
vt 0.572927 0.582244
vt 0.572927 0.549146
vt 0.816324 0.416393
vt 0.793810 0.416394
vt 0.793810 0.000233
vt 0.816324 0.000233
vt 0.599420 0.549146
vt 0.599420 0.571660
vt 0.770363 0.132519
vt 0.683945 0.132520
vt 0.683945 0.000233
vt 0.770363 0.000233
vt 0.471953 0.132519
vt 0.385531 0.132520
vt 0.385531 0.000233
vt 0.471953 0.000233
vt 0.518540 0.549146
vt 0.518540 0.635568
vt 0.000233 0.548680
vt 0.000233 0.416393
vt 0.086655 0.416393
vt 0.086655 0.548680
vt 0.491580 0.564956
vt 0.491580 0.651602
vt 0.456993 0.565579
vt 0.458288 0.651464
vt 0.519006 0.635565
vt 0.519006 0.549146
vt 0.839771 0.086652
vt 0.839771 0.000233
vt 0.862285 0.000233
vt 0.862285 0.086652
vt 0.000233 0.000233
vt 0.086655 0.000233
vt 0.471953 0.548679
vt 0.385532 0.548679
vt 0.770363 0.548680
vt 0.683944 0.548680
vt 0.816324 0.548680
vt 0.793810 0.548680
vt 0.839305 0.548680
vt 0.816791 0.548680
vt 0.298646 0.000233
vt 0.385065 0.000233
vt 0.448228 0.553150
vt 0.457198 0.553300
vt 0.793344 0.405199
vt 0.793344 0.594801
vt 0.770830 0.594801
vt 0.770830 0.405199
vt 0.000234 0.965307
vt 0.011429 0.954113
vt 0.201031 0.954113
vt 0.212225 0.965307
vt 0.424684 0.965306
vt 0.212693 0.965306
vt 0.223888 0.954112
vt 0.413490 0.954112
vt 0.568480 0.590887
vt 0.545966 0.590887
vt 0.545966 0.582710
vt 0.568480 0.582710
vt 0.793344 0.999767
vt 0.770830 0.999767
vt 0.000233 0.549148
vt 0.011428 0.549148
vt 0.603122 0.582710
vt 0.603122 0.601027
vt 0.591927 0.601027
vt 0.591927 0.582710
vt 0.568480 0.609204
vt 0.545966 0.609204
vt 0.429667 0.549146
vt 0.770830 0.000233
vt 0.793344 0.000233
vt 0.599887 0.567463
vt 0.611081 0.567463
vt 0.611081 0.575640
vt 0.599887 0.575640
vt 0.591461 0.582710
vt 0.591461 0.590887
vt 0.568947 0.590887
vt 0.568947 0.582710
vt 0.591461 0.609204
vt 0.568947 0.609204
vt 0.599887 0.549146
vt 0.611081 0.549146
vt 0.469642 0.552880
vt 0.488440 0.549146
vt 0.460680 0.552897
vt 0.424684 0.549146
vt 0.413490 0.549146
vt 0.603122 0.609204
vt 0.591927 0.609204
vt 0.223887 0.549146
vt 0.212693 0.549146
vt 0.201032 0.549146
vt 0.212226 0.549146
s 0
usemtl DoorWall
f 4/1/1 1/2/1 2/3/1
f 2/3/1 3/4/1 4/1/1
s 1
f 8/5/2 5/6/3 6/7/4
f 6/7/4 7/8/2 8/5/2
s 0
f 12/9/5 9/10/5 10/11/5
f 10/11/5 11/12/5 12/9/5
f 16/13/5 13/14/5 14/15/5
f 14/15/5 15/16/5 16/13/5
f 20/17/5 17/18/5 18/19/5
f 18/19/5 19/20/5 20/17/5
f 24/21/6 21/22/6 22/23/6
f 22/23/6 23/24/6 24/21/6
f 28/25/7 25/26/7 26/27/7
f 26/27/7 27/28/7 28/25/7
f 32/29/7 29/30/7 30/31/7
f 30/31/7 31/32/7 32/29/7
f 25/26/7 33/33/7 34/34/7
f 34/34/7 26/27/7 25/26/7
f 38/35/8 35/36/8 36/37/8
f 36/37/8 37/38/8 38/35/8
f 42/39/8 39/40/8 40/41/8
f 40/41/8 41/42/8 42/39/8
f 44/43/8 43/44/8 35/36/8
f 35/36/8 38/35/8 44/43/8
f 48/45/1 45/46/1 46/47/1
f 46/47/1 47/48/1 48/45/1
f 52/49/1 49/50/1 50/51/1
f 50/51/1 51/52/1 52/49/1
f 16/13/5 53/53/5 54/54/5
f 54/54/5 13/14/5 16/13/5
f 58/55/5 55/56/5 56/57/5
f 56/57/5 57/58/5 58/55/5
f 62/59/1 59/60/1 60/8/1
f 60/8/1 61/7/1 62/59/1
s 1
f 66/61/9 63/62/2 64/4/2
f 64/4/2 65/3/10 66/61/9
s 0
f 20/17/5 19/20/5 67/63/5
f 67/63/5 68/64/5 20/17/5
f 72/65/6 69/66/6 70/67/6
f 70/67/6 71/68/6 72/65/6
f 21/22/6 72/65/6 71/68/6
f 71/68/6 22/23/6 21/22/6
f 45/46/1 52/49/1 51/52/1
f 51/52/1 46/47/1 45/46/1
f 57/58/5 56/57/5 9/10/5
f 9/10/5 12/9/5 57/58/5
f 55/56/5 73/69/5 74/70/5
f 74/70/5 56/57/5 55/56/5
f 76/71/1 75/72/1 49/50/1
f 49/50/1 52/49/1 76/71/1
f 78/73/1 77/74/1 45/46/1
f 45/46/1 48/45/1 78/73/1
f 80/75/8 79/76/8 39/40/8
f 39/40/8 42/39/8 80/75/8
f 29/30/7 81/77/7 82/78/7
f 82/78/7 30/31/7 29/30/7
f 9/10/5 83/79/5 84/80/5
f 84/80/5 10/11/5 9/10/5
s 1
f 86/81/11 85/82/11 66/61/9
f 66/61/9 65/3/10 86/81/11
s 0
f 90/83/12 87/84/12 88/85/12
f 88/85/12 89/86/12 90/83/12
f 94/87/5 91/88/5 92/89/5
f 92/89/5 93/90/5 94/87/5
f 98/91/1 95/92/1 96/93/1
f 96/93/1 97/94/1 98/91/1
f 102/95/8 99/96/8 100/97/8
f 100/97/8 101/98/8 102/95/8
f 106/84/7 103/99/7 104/100/7
f 104/100/7 105/85/7 106/84/7
f 108/101/5 107/102/5 91/88/5
f 91/88/5 94/87/5 108/101/5
f 112/103/5 109/104/5 110/105/5
f 110/105/5 111/106/5 112/103/5
f 114/107/8 113/108/8 99/96/8
f 99/96/8 102/95/8 114/107/8
f 118/81/13 115/3/13 116/2/13
f 116/2/13 117/109/13 118/81/13
f 122/86/8 119/110/8 120/111/8
f 120/111/8 121/83/8 122/86/8
f 126/112/5 123/113/5 124/114/5
f 124/114/5 125/115/5 126/112/5
f 130/116/7 127/117/7 128/118/7
f 128/118/7 129/119/7 130/116/7
f 127/117/7 131/120/7 132/121/7
f 132/121/7 128/118/7 127/117/7
f 134/122/5 133/123/5 123/113/5
f 123/113/5 126/112/5 134/122/5
f 138/59/14 135/7/14 136/124/14
f 136/124/14 137/125/14 138/59/14
s 1
f 6/7/4 5/6/3 139/126/15
f 139/126/15 140/124/15 6/7/4
s 0
f 142/127/1 98/91/1 97/94/1
f 97/94/1 141/128/1 142/127/1
f 109/104/5 143/129/5 144/130/5
f 144/130/5 110/105/5 109/104/5
f 146/131/1 96/93/1 95/92/1
f 95/92/1 145/132/1 146/131/1
f 148/133/5 147/134/5 93/90/5
f 93/90/5 92/89/5 148/133/5
o Door.001
v -0.032349 0.219376 1.075096
v -0.022086 0.219376 1.075096
v -0.022086 0.365034 1.075096
v -0.032349 0.365034 1.075096
v -0.032349 0.219376 0.914684
v -0.032349 0.365034 0.914684
v -0.022086 0.365034 0.914684
v -0.022086 0.219376 0.914684
v -0.022086 0.365034 1.075096
v -0.022086 0.365034 0.914684
v -0.032349 0.365034 0.914684
v -0.032349 0.365034 1.075096
v -0.032349 0.219376 1.075096
v -0.032349 0.219376 0.914684
v -0.032349 0.000000 0.914684
v -0.032349 0.000000 1.075096
v -0.022086 0.000000 1.075096
v -0.022086 0.000000 0.914684
v -0.022086 0.219376 0.914684
v -0.022086 0.219376 1.075096
v -0.027218 0.234143 1.065285
v -0.027218 0.350268 1.065285
v -0.022086 0.350268 1.065285
v -0.022086 0.234143 1.065285
v -0.032349 0.000000 0.914684
v -0.022086 0.000000 0.914684
v -0.032349 0.000000 1.075096
v -0.022086 0.000000 1.075096
v -0.032349 0.350268 1.065285
v -0.032349 0.234143 1.065285
v -0.032349 0.365034 1.075096
v -0.032349 0.234143 0.924496
v -0.032349 0.350268 0.924496
v -0.032349 0.365034 0.914684
v -0.022086 0.350268 1.065285
v -0.022086 0.350268 0.924496
v -0.022086 0.365034 0.914684
v -0.022086 0.365034 1.075096
v -0.022086 0.234143 1.065285
v -0.022086 0.234143 0.924496
v -0.027218 0.350268 0.924496
v -0.032349 0.350268 0.924496
v -0.032349 0.234143 0.924496
v -0.027218 0.234143 0.924496
v -0.027218 0.350268 1.065285
v -0.032349 0.350268 1.065285
v -0.032349 0.350268 0.924496
v -0.027218 0.350268 0.924496
v -0.019696 0.176442 1.063567
v -0.019696 0.171823 1.063567
v -0.014558 0.171823 1.063567
v -0.014558 0.176442 1.063567
v -0.022086 0.169027 1.071523
v -0.022086 0.169027 1.048658
v -0.019696 0.169027 1.048658
v -0.019696 0.169027 1.071523
v -0.022086 0.169027 1.048658
v -0.022086 0.179237 1.048658
v -0.019696 0.179237 1.048658
v -0.019696 0.169027 1.048658
v -0.022086 0.179237 1.048658
v -0.022086 0.179237 1.071523
v -0.019696 0.179237 1.071523
v -0.019696 0.179237 1.048658
v -0.022086 0.179237 1.071523
v -0.022086 0.169027 1.071523
v -0.019696 0.169027 1.071523
v -0.019696 0.179237 1.071523
v -0.019696 0.171823 1.063567
v -0.019696 0.176442 1.063567
v -0.019696 0.179237 1.071523
v -0.019696 0.169027 1.071523
v -0.019696 0.176442 1.056613
v -0.019696 0.171823 1.056613
v -0.019696 0.169027 1.048658
v -0.019696 0.179237 1.048658
v -0.019696 0.176442 1.063567
v -0.019696 0.179237 1.071523
v -0.019696 0.171823 1.056613
v -0.019696 0.171823 1.063567
v -0.019696 0.169027 1.071523
v -0.019696 0.169027 1.048658
v -0.014558 0.171823 1.063567
v -0.014558 0.171823 1.056613
v -0.008611 0.171823 1.056613
v -0.008611 0.171823 1.063567
v -0.019696 0.171823 1.063567
v -0.019696 0.171823 1.056613
v -0.019696 0.171823 1.056613
v -0.019696 0.176442 1.056613
v -0.014558 0.176442 1.056613
v -0.014558 0.171823 1.056613
v -0.019696 0.176442 1.056613
v -0.019696 0.176442 1.063567
v -0.014558 0.176442 1.063567
v -0.014558 0.176442 1.056613
v -0.008611 0.171823 1.063567
v -0.008611 0.171823 1.056613
v -0.008611 0.176442 1.056613
v -0.008611 0.176442 1.063567
v -0.014558 0.176442 1.056613
v -0.008611 0.176442 1.056613
v -0.008611 0.175003 1.033276
v -0.014558 0.175003 1.033276
v -0.008611 0.176442 1.063567
v -0.008611 0.176442 1.056613
v -0.008611 0.171823 1.063567
v -0.008611 0.176442 1.063567
v -0.014558 0.173261 1.033276
v -0.014558 0.175003 1.033276
v -0.008611 0.175003 1.033276
v -0.008611 0.173261 1.033276
v -0.014558 0.171823 1.056613
v -0.014558 0.176442 1.056613
v -0.014558 0.175003 1.033276
v -0.014558 0.173261 1.033276
v -0.008611 0.171823 1.056613
v -0.014558 0.171823 1.056613
v -0.014558 0.173261 1.033276
v -0.008611 0.173261 1.033276
v -0.008611 0.173261 1.033276
v -0.008611 0.175003 1.033276
v -0.027218 0.234143 1.065285
v -0.027218 0.234143 0.924496
v -0.032349 0.234143 0.924496
v -0.032349 0.234143 1.065285
v -0.022086 0.234143 1.065285
v -0.022086 0.234143 0.924496
v -0.022086 0.350268 1.065285
v -0.022086 0.350268 0.924496
v -0.022086 0.350268 0.924496
v -0.022086 0.234143 0.924496
v -0.032349 0.234143 1.065285
v -0.032349 0.350268 1.065285
v -0.024106 0.234143 1.065285
v -0.024106 0.234143 0.924496
v -0.024106 0.350268 0.924496
v -0.024106 0.350268 1.065285
v -0.030735 0.234143 1.065285
v -0.030735 0.350268 1.065285
v -0.030735 0.350268 0.924496
v -0.030735 0.234143 0.924496
vn -0.0000 -0.0000 1.0000
vn -0.0000 -0.0000 -1.0000
vn -0.0000 1.0000 -0.0000
vn -1.0000 -0.0000 -0.0000
vn 1.0000 -0.0000 -0.0000
vn -0.0000 -1.0000 -0.0000
vn -0.0000 0.9981 -0.0615
vn -0.0000 -0.9981 -0.0615
vt 0.934644 0.761433
vt 0.934644 0.457694
vt 0.956044 0.457694
vt 0.956044 0.761433
vt 0.934181 0.303970
vt 0.912781 0.303970
vt 0.912781 0.000231
vt 0.934182 0.000231
vt 0.670165 0.588325
vt 0.691566 0.588325
vt 0.691566 0.922831
vt 0.670165 0.922831
vt 0.335198 0.761432
vt 0.335198 0.303970
vt 0.669704 0.303970
vt 0.669703 0.761432
vt 0.334736 0.303970
vt 0.334736 0.761432
vt 0.000231 0.761432
vt 0.000231 0.303970
vt 0.977906 0.242385
vt 0.967206 0.242385
vt 0.967206 0.000231
vt 0.977907 0.000231
vt 0.934182 0.761432
vt 0.912781 0.761432
vt 0.934644 0.000231
vt 0.956044 0.000231
vt 0.335198 0.000231
vt 0.355658 0.031024
vt 0.355658 0.273177
vt 0.649244 0.273177
vt 0.649244 0.031024
vt 0.669704 0.000231
vt 0.334736 0.000231
vt 0.314276 0.031024
vt 0.020691 0.031024
vt 0.000231 0.000231
vt 0.314276 0.273177
vt 0.020691 0.273177
vt 0.989069 0.535970
vt 0.989069 0.293817
vt 0.999769 0.293817
vt 0.999769 0.535970
vt 0.989069 0.000231
vt 0.999769 0.000231
vt 0.715604 0.710809
vt 0.715604 0.700096
vt 0.725235 0.700096
vt 0.725235 0.710809
vt 0.737357 0.609617
vt 0.742343 0.609617
vt 0.742343 0.657297
vt 0.737357 0.657297
vt 0.742343 0.678588
vt 0.737357 0.678588
vt 0.742343 0.726268
vt 0.737357 0.726268
vt 0.737357 0.588326
vt 0.742343 0.588326
vt 0.715604 0.636005
vt 0.721434 0.619416
vt 0.731065 0.619416
vt 0.736895 0.636005
vt 0.736895 0.588325
vt 0.731065 0.604915
vt 0.721434 0.604915
vt 0.715604 0.588325
vt 0.715142 0.715306
vt 0.702741 0.715306
vt 0.702741 0.700805
vt 0.715142 0.700805
vt 0.692028 0.715306
vt 0.692028 0.700805
vt 0.701659 0.715768
vt 0.701659 0.726481
vt 0.692028 0.726481
vt 0.692028 0.715768
vt 0.702741 0.602826
vt 0.692028 0.602826
vt 0.692028 0.588325
vt 0.702741 0.588325
vt 0.725235 0.699634
vt 0.715604 0.699634
vt 0.715604 0.685133
vt 0.725235 0.685133
vt 0.702741 0.651585
vt 0.715142 0.602827
vt 0.715142 0.651585
vt 0.715142 0.588325
vt 0.715604 0.723210
vt 0.725235 0.723210
vt 0.705754 0.715768
vt 0.705754 0.728169
vt 0.702121 0.728169
vt 0.702121 0.715768
vt 0.732329 0.636467
vt 0.735328 0.685133
vt 0.725697 0.685133
vt 0.728696 0.636467
vt 0.715142 0.652047
vt 0.702741 0.652047
vt 0.722236 0.636467
vt 0.718603 0.636467
vt 0.956506 0.242385
vt 0.967206 0.535970
vt 0.956506 0.535970
vt 0.977907 0.535970
vt 0.978368 0.293817
vt 0.978369 0.000231
vt 0.978369 0.535970
vt 0.956506 0.000231
vt 0.912319 0.293816
vt 0.670165 0.293816
vt 0.670165 0.000231
vt 0.912319 0.000231
vt 0.912319 0.294278
vt 0.912319 0.587864
vt 0.670165 0.587864
vt 0.670165 0.294278
s 0
usemtl Door
f 152/135/16 149/136/16 150/137/16
f 150/137/16 151/138/16 152/135/16
f 156/139/17 153/140/17 154/141/17
f 154/141/17 155/142/17 156/139/17
f 160/143/18 157/144/18 158/145/18
f 158/145/18 159/146/18 160/143/18
f 164/147/19 161/148/19 162/149/19
f 162/149/19 163/150/19 164/147/19
f 168/151/20 165/152/20 166/153/20
f 166/153/20 167/154/20 168/151/20
f 172/155/17 169/156/17 170/157/17
f 170/157/17 171/158/17 172/155/17
f 174/159/17 173/160/17 153/140/17
f 153/140/17 156/139/17 174/159/17
f 149/136/16 175/161/16 176/162/16
f 176/162/16 150/137/16 149/136/16
f 179/163/19 177/164/19 178/165/19
f 178/165/19 161/148/19 179/163/19
f 162/149/19 180/166/19 181/167/19
f 181/167/19 182/168/19 162/149/19
f 182/168/19 181/167/19 177/164/19
f 177/164/19 179/163/19 182/168/19
f 186/169/20 183/170/20 184/171/20
f 184/171/20 185/172/20 186/169/20
f 168/151/20 187/173/20 183/170/20
f 183/170/20 186/169/20 168/151/20
f 185/172/20 184/171/20 188/174/20
f 188/174/20 167/154/20 185/172/20
f 167/154/20 188/174/20 187/173/20
f 187/173/20 168/151/20 167/154/20
f 161/148/19 178/165/19 180/166/19
f 180/166/19 162/149/19 161/148/19
f 192/175/16 189/176/16 190/177/16
f 190/177/16 191/178/16 192/175/16
f 196/176/21 193/179/21 194/180/21
f 194/180/21 195/177/21 196/176/21
f 200/181/16 197/182/16 198/183/16
f 198/183/16 199/184/16 200/181/16
f 204/185/21 201/186/21 202/187/21
f 202/187/21 203/188/21 204/185/21
f 208/188/17 205/187/17 206/189/17
f 206/189/17 207/190/17 208/188/17
f 212/190/18 209/189/18 210/191/18
f 210/191/18 211/192/18 212/190/18
f 216/193/16 213/194/16 214/186/16
f 214/186/16 215/185/16 216/193/16
f 220/195/20 217/196/20 218/197/20
f 218/197/20 219/198/20 220/195/20
f 224/199/20 221/200/20 222/201/20
f 222/201/20 223/202/20 224/199/20
f 226/198/20 225/197/20 221/200/20
f 221/200/20 224/199/20 226/198/20
f 230/202/20 227/201/20 228/196/20
f 228/196/20 229/195/20 230/202/20
f 234/203/21 231/204/21 232/205/21
f 232/205/21 233/206/21 234/203/21
f 231/204/21 235/207/21 236/208/21
f 236/208/21 232/205/21 231/204/21
f 240/209/17 237/210/17 238/211/17
f 238/211/17 239/212/17 240/209/17
f 244/213/18 241/214/18 242/215/18
f 242/215/18 243/216/18 244/213/18
f 248/217/20 245/218/20 246/219/20
f 246/219/20 247/220/20 248/217/20
f 252/221/22 249/213/22 250/222/22
f 250/222/22 251/223/22 252/221/22
f 254/222/18 244/213/18 243/216/18
f 243/216/18 253/224/18 254/222/18
f 256/225/16 200/181/16 199/184/16
f 199/184/16 255/226/16 256/225/16
f 260/227/17 257/228/17 258/229/17
f 258/229/17 259/230/17 260/227/17
f 264/231/19 261/232/19 262/233/19
f 262/233/19 263/234/19 264/231/19
f 268/235/23 265/206/23 266/205/23
f 266/205/23 267/236/23 268/235/23
f 270/237/20 247/220/20 246/219/20
f 246/219/20 269/238/20 270/237/20
f 274/239/18 271/156/18 272/240/18
f 272/240/18 273/241/18 274/239/18
f 271/156/18 275/155/18 276/242/18
f 276/242/18 272/240/18 271/156/18
f 278/243/21 277/244/21 193/179/21
f 193/179/21 196/176/21 278/243/21
f 280/245/16 279/243/16 189/176/16
f 189/176/16 192/175/16 280/245/16
f 169/156/17 281/239/17 282/246/17
f 282/246/17 170/157/17 169/156/17
f 286/247/20 283/248/20 284/249/20
f 284/249/20 285/250/20 286/247/20
f 290/251/19 287/252/19 288/253/19
f 288/253/19 289/254/19 290/251/19
