# Blender 3.6.1
# www.blender.org
mtllib ClipBoard.mtl
o Clipboard_low
v 0.025000 0.235378 0.332181
v 0.025000 0.232028 0.332181
v -0.025000 0.235378 0.332181
v -0.025000 0.232028 0.332181
v 0.025000 0.235378 0.302660
v 0.025000 0.232028 0.302660
v -0.025000 0.235378 0.302660
v -0.025000 0.232028 0.302660
v 0.022732 0.235377 0.316043
v 0.022785 0.235377 0.316087
v 0.022838 0.235377 0.316043
v 0.022785 0.235377 0.315999
v 0.022732 0.236465 0.316043
v 0.022785 0.236465 0.316087
v 0.022838 0.236465 0.316043
v 0.022785 0.236465 0.315999
v 0.022732 0.236656 0.316072
v 0.022785 0.236438 0.316083
v 0.022838 0.236656 0.316072
v 0.022785 0.236873 0.316061
v 0.022732 0.236656 0.318769
v 0.022785 0.236438 0.318758
v 0.022838 0.236656 0.318769
v 0.022785 0.236873 0.318780
v 0.022732 0.236465 0.318799
v 0.022785 0.236463 0.318754
v 0.022838 0.236465 0.318799
v 0.022785 0.236468 0.318843
v 0.022732 0.235378 0.318801
v 0.022785 0.235375 0.318757
v 0.022838 0.235378 0.318801
v 0.022785 0.235380 0.318845
v 0.022449 0.238418 0.316165
v 0.022449 0.238418 0.318677
v 0.023042 0.238569 0.316165
v 0.023042 0.238569 0.318677
v 0.021961 0.238304 0.315673
v 0.021961 0.238304 0.319168
v 0.021324 0.238157 0.314626
v 0.021324 0.238157 0.320215
v 0.021010 0.238107 0.314390
v 0.021010 0.238107 0.320451
v 0.020352 0.238014 0.314231
v 0.020352 0.238014 0.320610
v 0.019791 0.236996 0.314231
v 0.019791 0.236996 0.320610
v 0.023186 0.238598 0.316472
v 0.023186 0.238598 0.318370
v 0.024470 0.238895 0.316781
v 0.024470 0.238895 0.318061
v 0.024797 0.238982 0.316970
v 0.024797 0.238982 0.317872
v 0.024951 0.239020 0.317218
v 0.024951 0.239020 0.317623
v 0.022449 0.238418 0.316165
v 0.023042 0.238569 0.316165
v 0.022648 0.236015 0.318677
v 0.022934 0.236090 0.318677
v 0.022648 0.236015 0.316165
v 0.022934 0.236090 0.316165
v 0.024983 0.239028 0.317387
v 0.024983 0.239028 0.317454
v 0.023114 0.238583 0.316392
v 0.023114 0.238583 0.318450
v 0.022738 0.235813 0.318677
v 0.022883 0.235879 0.318677
v 0.022738 0.235813 0.316165
v 0.022883 0.235879 0.316165
v 0.023019 0.237260 0.318677
v 0.022537 0.237083 0.318677
v 0.022537 0.237083 0.316165
v 0.023019 0.237234 0.316165
v 0.024371 0.238888 0.317793
v 0.024454 0.238907 0.317095
v 0.024294 0.238869 0.317038
v 0.024122 0.238828 0.317029
v 0.023961 0.238790 0.317081
v 0.023831 0.238761 0.317189
v 0.023756 0.238742 0.317317
v 0.023779 0.238752 0.317599
v 0.023888 0.238773 0.317714
v 0.024033 0.238808 0.317791
v 0.024202 0.238848 0.317818
v 0.024518 0.238922 0.317718
v 0.024622 0.238947 0.317603
v 0.024670 0.238958 0.317465
v 0.024663 0.238951 0.317322
v 0.024586 0.238934 0.317193
v 0.023724 0.238769 0.317458
v 0.019177 0.236661 0.332660
v 0.021633 0.236661 0.306910
v -0.024364 0.236661 0.329755
v -0.021908 0.236661 0.304006
v -0.021801 0.235378 0.304711
v -0.021801 0.236996 0.304711
v 0.021878 0.235378 0.304711
v 0.021878 0.236996 0.304711
v -0.021801 0.235378 0.330542
v -0.021801 0.236996 0.330542
v 0.021878 0.235378 0.330542
v 0.021878 0.236996 0.330542
v -0.021831 0.235733 0.303295
v -0.023326 0.235733 0.329096
v 0.021797 0.235733 0.305064
v 0.020302 0.235733 0.330865
v -0.023313 0.236208 0.306077
v -0.020516 0.236208 0.331803
v 0.020186 0.236208 0.302769
v 0.022983 0.236208 0.328494
vn -0.6221 -0.2442 0.7438
vn -0.6221 0.2442 0.7438
vn -0.6221 0.2442 -0.7438
vn -0.6221 -0.2442 -0.7438
vn 0.6221 0.2442 0.7438
vn 0.6221 0.2442 -0.7438
vn 0.6221 -0.2442 -0.7438
vn 0.6221 -0.2442 0.7438
vn -1.0000 -0.0000 -0.0000
vn -0.9935 0.0169 -0.1129
vn -0.0000 0.0664 -0.9978
vn -0.0000 -0.0000 -1.0000
vn -0.0000 -0.0000 1.0000
vn -0.0000 -0.0675 0.9977
vn 1.0000 -0.0000 -0.0000
vn 0.9935 0.0169 -0.1129
vn -0.0000 -0.5880 0.8088
vn -0.9656 0.0498 -0.2553
vn 0.9656 0.0498 -0.2553
vn -0.0000 0.5317 -0.8469
vn -0.9663 0.0498 0.2527
vn -0.0000 0.5336 0.8457
vn -0.0000 -0.5919 -0.8060
vn 0.9663 0.0498 0.2527
vn -0.0000 -0.0698 -0.9976
vn -0.9935 0.0165 0.1124
vn 0.9935 0.0165 0.1124
vn -0.0000 0.0688 0.9976
vn -1.0000 -0.0000 -0.0063
vn -0.0000 0.0022 1.0000
vn -0.0000 -0.0022 -1.0000
vn 1.0000 -0.0000 -0.0063
vn -0.2395 0.9709 -0.0000
vn -0.2257 0.9742 -0.0000
vn -0.2258 0.9742 -0.0000
vn -0.1676 0.9859 -0.0000
vn -0.1446 0.9895 -0.0000
vn -0.1396 0.9902 -0.0000
vn -0.8762 0.4820 -0.0000
vn -0.1918 0.9814 -0.0000
vn -0.2113 0.9774 0.0081
vn -0.2049 0.9788 -0.0072
vn -0.2221 0.9740 0.0447
vn -0.2235 0.9734 0.0503
vn -0.2197 0.9746 0.0436
vn -0.2225 0.9747 0.0227
vn -0.2203 0.9750 0.0306
vn -0.2246 0.9743 -0.0163
vn -0.2374 0.9714 -0.0000
vn -0.0000 1.0000 -0.0000
vn -0.0000 -0.0000 -0.0000
vn -0.2524 0.9676 -0.0000
vn -0.2193 0.9749 -0.0384
vn -0.2209 0.9747 -0.0351
vn -0.2231 0.9747 -0.0106
vn -0.2089 0.9779 -0.0030
vn -0.2137 0.9768 0.0099
vn -0.2413 0.9704 -0.0047
vn -0.2312 0.9728 -0.0139
vn -0.2211 0.9746 -0.0348
vn -0.2157 0.9754 -0.0448
vn -0.2614 0.9651 0.0164
vn -0.2219 0.9746 0.0315
vn -0.2274 0.9736 0.0177
vn -0.2110 0.9775 -0.0036
vn -0.0560 0.9897 -0.1314
vn -0.2312 0.9727 -0.0178
vt 0.006222 0.294018
vt 0.019019 0.294018
vt 0.019019 0.637571
vt 0.006222 0.637571
vt 0.505691 0.294018
vt 0.505690 0.637571
vt 0.019019 0.650368
vt 0.505690 0.650368
vt 0.505690 0.993920
vt 0.019019 0.993920
vt 0.518488 0.637571
vt 0.518488 0.294018
vt 0.505691 0.281221
vt 0.019019 0.281221
vt 0.606491 0.056665
vt 0.621448 0.056665
vt 0.621448 0.062781
vt 0.606491 0.062781
vt 0.606491 0.050655
vt 0.621448 0.050655
vt 0.995843 0.039053
vt 0.980981 0.039053
vt 0.980981 0.033070
vt 0.995843 0.033070
vt 0.995843 0.045112
vt 0.980981 0.045112
vt 0.627322 0.050655
vt 0.627322 0.056665
vt 0.975148 0.039053
vt 0.975148 0.033070
vt 0.975148 0.045112
vt 0.974618 0.056665
vt 0.974618 0.062781
vt 0.627322 0.062781
vt 0.974618 0.050655
vt 0.630025 0.039053
vt 0.630025 0.033070
vt 0.630025 0.045112
vt 0.980434 0.050655
vt 0.980434 0.056665
vt 0.624240 0.039053
vt 0.624240 0.033070
vt 0.624240 0.045112
vt 0.995546 0.056665
vt 0.995546 0.062781
vt 0.980434 0.062781
vt 0.995546 0.050655
vt 0.609217 0.039053
vt 0.609217 0.033070
vt 0.609217 0.045112
vt 0.149914 0.138601
vt 0.298918 0.138601
vt 0.298918 0.168083
vt 0.149914 0.168083
vt 0.120756 0.114333
vt 0.328076 0.114333
vt 0.058632 0.082721
vt 0.390200 0.082721
vt 0.044656 0.067102
vt 0.404176 0.067102
vt 0.035214 0.034428
vt 0.413618 0.034428
vt 0.035214 0.004181
vt 0.413618 0.004181
vt 0.163378 0.171666
vt 0.285452 0.171666
vt 0.280706 0.175250
vt 0.168124 0.175249
vt 0.270605 0.243598
vt 0.248117 0.237262
vt 0.249291 0.226912
vt 0.254389 0.262803
vt 0.242242 0.246341
vt 0.186507 0.265461
vt 0.236094 0.273285
vt 0.205565 0.274481
vt 0.149349 0.168340
vt 0.149349 0.135749
vt 0.753854 0.149285
vt 0.853854 0.147902
vt 0.833100 0.202479
vt 0.773830 0.202602
vt 0.873979 0.146637
vt 0.974207 0.149285
vt 0.954231 0.202602
vt 0.894961 0.202479
vt 0.223427 0.275771
vt 0.218387 0.275968
vt 0.821906 0.212091
vt 0.791777 0.213541
vt 0.936284 0.213541
vt 0.906155 0.212091
vt 0.865461 0.083257
vt 0.988377 0.083257
vt 0.739684 0.083257
vt 0.862599 0.083257
vt 0.174487 0.239732
vt 0.195600 0.243614
vt 0.202902 0.251512
vt 0.223742 0.256279
vt 0.235971 0.251495
vt 0.199577 0.207802
vt 0.194720 0.214058
vt 0.191349 0.223444
vt 0.191938 0.234294
vt 0.232159 0.201219
vt 0.246616 0.216054
vt 0.240710 0.206656
vt 0.212529 0.255553
vt 0.208491 0.202678
vt 0.220325 0.199561
vt 0.994538 0.292069
vt 0.526389 0.292069
vt 0.526389 0.993293
vt 0.994538 0.993293
vt 0.646343 0.012019
vt 0.646343 0.005633
vt 0.994383 0.005631
vt 0.994383 0.012019
vt 0.471730 0.026839
vt 0.471730 0.020456
vt 0.646488 0.020457
vt 0.646488 0.026841
vt 0.994419 0.020458
vt 0.994419 0.026843
vt 0.471521 0.012019
vt 0.471521 0.005633
vt 0.994538 0.993293
vt 0.526389 0.993293
s 1
g Clipboard_low_Material.001
usemtl Material.001
f 4/1/1 3/2/2 7/3/3 8/4/4
f 1/5/5 5/6/6 7/3/3 3/2/2
f 8/7/4 7/3/3 5/6/6 6/8/7
f 6/8/7 2/9/8 4/10/1 8/7/4
f 6/11/7 5/6/6 1/5/5 2/12/8
f 2/13/8 1/5/5 3/2/2 4/14/1
f 9/15/9 13/16/10 16/17/11 12/18/12
f 10/19/13 14/20/14 13/16/10 9/15/9
f 11/21/15 15/22/16 14/23/14 10/24/13
f 12/25/12 16/26/11 15/22/16 11/21/15
f 14/20/14 18/27/17 17/28/18 13/16/10
f 15/22/16 19/29/19 18/30/17 14/23/14
f 16/26/11 20/31/20 19/29/19 15/22/16
f 17/28/18 21/32/21 24/33/22 20/34/20
f 18/27/17 22/35/23 21/32/21 17/28/18
f 19/29/19 23/36/24 22/37/23 18/30/17
f 20/31/20 24/38/22 23/36/24 19/29/19
f 22/35/23 26/39/25 25/40/26 21/32/21
f 23/36/24 27/41/27 26/42/25 22/37/23
f 24/38/22 28/43/28 27/41/27 23/36/24
f 25/40/26 29/44/29 32/45/30 28/46/28
f 26/39/25 30/47/31 29/44/29 25/40/26
f 27/41/27 31/48/32 30/49/31 26/42/25
f 28/43/28 32/50/30 31/48/32 27/41/27
f 21/32/21 25/40/26 28/46/28 24/33/22
f 13/16/10 17/28/18 20/34/20 16/17/11
f 33/51/33 34/52/33 36/53/34 35/54/34
f 34/52/33 33/51/33 37/55/35 38/56/35
f 38/56/35 37/55/35 39/57/36 40/58/36
f 40/58/36 39/57/36 41/59/37 42/60/37
f 42/60/37 41/59/37 43/61/38 44/62/38
f 44/62/39 43/61/39 45/63/39 46/64/39
f 63/65/40 64/66/40 48/67/41 47/68/42
f 50/69/43 73/70/44 83/71/45
f 52/72/46 84/73/47 73/70/44 50/69/43
f 51/74/48 52/72/46 54/75/49 53/76/49
f 33/51/50 35/54/15 56/77/51 55/78/50
f 71/79/12 72/80/12 60/81/12 59/82/12
f 69/83/13 70/84/13 57/85/13 58/86/13
f 53/76/49 54/75/49 62/87/52 61/88/52
f 35/54/34 36/53/34 64/66/40 63/65/40
f 59/82/12 60/81/12 68/89/12 67/90/12
f 58/86/13 57/85/13 65/91/13 66/92/13
f 36/93/13 34/94/13 70/84/13 69/83/13
f 55/95/12 56/96/12 72/80/12 71/79/12
f 49/97/53 74/98/54 88/99/55 51/74/48
f 52/72/46 86/100/56 85/101/57 84/73/47
f 47/68/42 78/102/58 77/103/59 76/104/60
f 49/97/53 47/68/42 76/104/60 75/105/61
f 80/106/62 48/67/41 82/107/63 81/108/64
f 48/67/41 50/69/43 83/71/45 82/107/63
f 74/98/54 49/97/53 75/105/61
f 51/74/48 88/99/55 87/109/65
f 52/72/46 51/74/48 87/109/65 86/100/56
f 78/102/58 47/68/42 79/110/66
f 47/68/42 48/67/41 80/106/62 89/111/67
f 79/110/66 47/68/42 89/111/67
f 90/112/50 91/113/50 93/114/50 92/115/50
f 94/116/12 95/117/12 97/118/12 96/119/12
f 96/120/15 97/121/15 101/122/15 100/123/15
f 100/123/13 101/122/13 99/124/13 98/125/13
f 98/126/9 99/127/9 95/117/9 94/116/9
f 101/128/50 97/129/50 95/113/50 99/112/50
f 102/113/50 103/112/50 105/115/50 104/114/50
f 106/113/50 107/112/50 109/128/50 108/129/50
o Plane
v -0.020971 0.237304 0.304364
v -0.020971 0.237304 0.331364
v 0.019029 0.237304 0.304364
v 0.019029 0.237304 0.331364
vn -0.0000 1.0000 -0.0000
vt 0.000000 0.000000
vt 1.000000 0.000000
vt 1.000000 1.000000
vt 0.000000 1.000000
s 0
g Plane_Material.002
usemtl Material.002
f 110/130/68 111/131/68 113/132/68 112/133/68
