
        <svg xmlns="http://www.w3.org/2000/svg" xmlns:xlink="http://www.w3.org/1999/xlink" version="1.1" width="3192" 
        height="3154.96318798359" viewBox="0 0 3192 3154.96318798359">
			<rect fill="#6639a6" width="3192" height="3154.96318798359"/>
			<g transform="scale(9.6) translate(10, 10)">
				<defs id="SvgjsDefs6111"></defs><g id="SvgjsG6112" featureKey="rootContainer" transform="matrix(2.962557282918362,0,0,2.962557282918362,-0.11114361282025892,0.08493720129761974)" fill="#ffffff"><path xmlns="http://www.w3.org/2000/svg" d="M104.6 41.3a52.2 52.2 0 0 0-3.5-11.2A51.1 51.1 0 0 0 44.3 1a49.6 49.6 0 0 0-5.7 1.5 49.1 49.1 0 0 0-7.9 2.7A51.6 51.6 0 0 0 6.3 77a53.7 53.7 0 0 0 4.1 6.4 57 57 0 0 0 5 5.7 51.7 51.7 0 0 0 55.3 11.5l3.3-1.4 3-1.5a50.9 50.9 0 0 0 5.8-3.8l2.7-2.1 1.2-1.1 1.1-.9 2-1.8.7-.6.6-.7 1.8-2a48.5 48.5 0 0 0 5.9-8.3 50.4 50.4 0 0 0 5.6-14.7 51.6 51.6 0 0 0 .2-20.4zM87.1 88.6l-1.2 1.1-1.2 1.1-2.6 2.1a49.5 49.5 0 0 1-5.7 3.6l-3 1.5-3.2 1.3-4.9 1.6h-.5a50.9 50.9 0 0 1-20.3.1 51.8 51.8 0 0 1-11.1-3.6A50.5 50.5 0 0 1 22.9 91a52 52 0 0 1-9.1-9.4 50.3 50.3 0 0 1-3.7-5.7c-.6-1-1.1-2-1.6-3.1s-1-2.1-1.3-3.2a50.6 50.6 0 0 1 8.6-50.8l.8-.8.5-.6.6-.6 1.2-1.1 2.4-2.1A50.5 50.5 0 0 1 62.4 3.2a48.5 48.5 0 0 1 14.7 5.2 47 47 0 0 1 8.3 5.8l2 1.8.7.6.6.7 1.8 2a49.7 49.7 0 0 1 11.3 22.9 50.8 50.8 0 0 1-.1 20.2 51.6 51.6 0 0 1-3.6 11 50.2 50.2 0 0 1-6.6 10.5l-2.1 2.4zm-44.9 13a50.1 50.1 0 0 1-13.7-5 51.8 51.8 0 0 1-6.2-4 55.2 55.2 0 0 1-5.5-4.8 49.9 49.9 0 0 1-11-53.2c.4-1.1.9-2.1 1.3-3.1l.6-1.3a50.2 50.2 0 0 0-3.4 11 51.3 51.3 0 0 0 2.4 28.5c.4 1.1.9 2.2 1.4 3.2s1 2.1 1.6 3.1a50.6 50.6 0 0 0 3.7 5.8 51.5 51.5 0 0 0 9.2 9.5 50.9 50.9 0 0 0 10.7 6.5 51 51 0 0 0 28.7 3.9 50.3 50.3 0 0 1-19.8-.1zm61.9-39.9a50.2 50.2 0 0 1-5.5 14.7 48.4 48.4 0 0 1-5.8 8.3l-1.8 2-.6.7-.7.6-1.9 1.7h.2l2.3-2.4 2.1-2.5A51.3 51.3 0 0 0 98.9 74a51.4 51.4 0 0 0 3.2-31.6 49.6 49.6 0 0 0-2.5-8.2 49.4 49.4 0 0 0-3.1-6.5 48.7 48.7 0 0 0-5.9-8.3l-1.8-2-.6-.7-.7-.6-2-1.8A49.9 49.9 0 0 0 77.3 8a49.3 49.3 0 0 0-6.5-3.2 49.8 49.8 0 0 0-8.2-2.6A52.2 52.2 0 0 0 49.9 1a50.8 50.8 0 0 1 22.7 3.2l3.2 1.3 3.1 1.6a50.1 50.1 0 0 1 5.7 3.7l2.6 2.1 1.2 1.1 1.2 1.1 2.3 2.3 2.1 2.4a50.4 50.4 0 0 1 6.5 10.5 51.6 51.6 0 0 1 3.6 11 51.1 51.1 0 0 1 0 20.3z"></path></g><g id="SvgjsG6113" featureKey="symbolFeature-0" transform="matrix(1.7857142857142858,0,0,1.7857142857142858,98.85714285714286,38.78988661084856)" fill="#ffffff"><g xmlns="http://www.w3.org/2000/svg"><path d="M5,46h5.08A7.005,7.005,0,0,0,17,52h8.209a7.689,7.689,0,0,0,5.472-2.266L31.414,49h1.074a7.718,7.718,0,0,0,6.117,3H47a7.005,7.005,0,0,0,6.92-6H59a1,1,0,0,0,1-1V37a1,1,0,0,0-1-1H54V35c0-.007,0-.012,0-.019a.993.993,0,0,0-.068-.338c-.011-.029-.026-.054-.039-.081a.973.973,0,0,0-.057-.117l-4-6A.968.968,0,0,0,48.988,28l-11,.125a1,1,0,0,0-.572.188L33.678,31H30.333L26.6,28.2A1,1,0,0,0,26,28H15a1,1,0,0,0-.832.445l-4,6a.968.968,0,0,0-.057.117c-.014.027-.028.052-.039.081a1,1,0,0,0-.068.338c0,.007,0,.012,0,.019v1H5a1,1,0,0,0-1,1v8A1,1,0,0,0,5,46Zm42,4H38.605a5.725,5.725,0,0,1-4.773-2.555A1,1,0,0,0,33,47H31a1,1,0,0,0-.707.293L29.267,48.32A5.7,5.7,0,0,1,25.209,50H17a5.006,5.006,0,0,1-5-5V36h2v8a4,4,0,0,0,4,4h7.343a4.968,4.968,0,0,0,3.536-1.464L30.414,45h3.172l1.535,1.536A4.968,4.968,0,0,0,38.657,48H46a4,4,0,0,0,4-4V36h2v9A5.006,5.006,0,0,1,47,50ZM16,36H48v8a2,2,0,0,1-2,2H38.657a2.982,2.982,0,0,1-2.122-.878l-1.828-1.829A1,1,0,0,0,34,43H30a1,1,0,0,0-.707.293l-1.828,1.829A2.982,2.982,0,0,1,25.343,46H18a2,2,0,0,1-2-2Zm42,2v6H54V38ZM15.535,30H25.667L29.4,32.8a1,1,0,0,0,.6.2h4a1,1,0,0,0,.584-.188l3.743-2.69,10.142-.115L51.132,34H12.868ZM6,38h4v6H6Z"></path><path d="M11.485,17.857l5,3A1,1,0,0,0,18,20V14a1,1,0,0,0-1.515-.857l-5,3a1,1,0,0,0,0,1.715ZM16,15.766v2.468L13.943,17Z"></path><path d="M21,21a1,1,0,0,0,1-1V14a1,1,0,0,0-2,0v6A1,1,0,0,0,21,21Z"></path><path d="M26.507,20.87a1,1,0,0,0,1.008-.013L31,18.766V20a1,1,0,0,0,1,1h6a1,1,0,0,0,1-1V14a1,1,0,0,0-1-1H32a1,1,0,0,0-1,1v1.234l-3.485-2.091A1,1,0,0,0,26,14v6A1,1,0,0,0,26.507,20.87ZM33,15h4v4H33Zm-5,.766L30.057,17,28,18.234Z"></path><path d="M44,21a1,1,0,0,0,.316-.052l3-1A1,1,0,0,0,48,19V15.721l2.316-.772a1,1,0,0,0-.633-1.9l-3,1A1,1,0,0,0,46,15v3.279l-2.316.772A1,1,0,0,0,44,21Z"></path><rect x="31" y="23" width="2" height="2"></rect><rect x="31" y="27" width="2" height="2"></rect></g></g><g id="SvgjsG6114" featureKey="nameFeature-0" transform="matrix(1.9034084679545518,0,0,1.9034084679545518,51.431819495385895,130.22500974053366)" fill="#ffffff"><path d="M5.36 40 c-0.6 0 -1.16 0 -1.72 -0.16 c-0.32 -0.08 -0.56 -0.2 -0.76 -0.4 c-0.2 -0.24 -0.36 -0.48 -0.4 -0.76 c-0.04 -0.24 -0.08 -0.44 -0.08 -0.68 l0 -1.16 l0 -10.84 l0 -11 c0 -0.4 0 -0.84 0.04 -1.24 c0 -0.28 0.04 -0.52 0.12 -0.76 c0.16 -0.4 0.4 -0.68 0.8 -0.8 c0.32 -0.12 0.64 -0.16 0.96 -0.16 c0.36 -0.04 0.72 -0.04 1.04 -0.04 l13.56 0 c0.32 0 0.68 0 1.04 0.04 c0.28 0 0.52 0.04 0.76 0.12 c0.56 0.12 0.88 0.52 1 1.04 c0.04 0.2 0.08 0.4 0.08 0.6 l0 2.6 c0 0.16 -0.04 0.32 -0.04 0.48 c-0.12 0.68 -0.6 1.16 -1.28 1.24 c-0.24 0.04 -0.48 0.08 -0.68 0.08 l-1.16 0 l-5.32 0 c-0.36 0 -0.72 0 -1.08 0.04 c-0.32 0 -0.64 0.04 -0.92 0.16 c-0.48 0.16 -0.76 0.48 -0.96 0.92 c0 0.08 -0.04 0.16 -0.08 0.28 c-0.12 0.68 -0.12 1.4 -0.04 2.12 l0.12 0.36 c0.2 0.6 0.6 0.96 1.24 1.08 c0.32 0.08 0.64 0.08 0.96 0.08 l2.32 0 c0.48 0 0.96 0.04 1.44 0.12 c0.16 0.04 0.32 0.04 0.48 0.12 c0.4 0.12 0.72 0.4 0.84 0.84 c0.12 0.32 0.2 0.68 0.2 1.04 l0 2.12 c0 0.32 -0.08 0.64 -0.16 0.96 c-0.16 0.48 -0.48 0.76 -0.96 0.88 c-0.12 0.08 -0.28 0.08 -0.44 0.12 c-0.64 0.04 -1.28 0.12 -1.96 0.12 c-0.6 -0.04 -1.2 -0.04 -1.8 0 c-0.32 0 -0.6 0 -0.88 0.04 c-0.64 0.08 -1.04 0.48 -1.28 1.08 s-0.24 1.24 0 1.88 s0.64 1.04 1.36 1.08 c0.92 0.08 1.84 0.12 2.76 0.16 l4.64 0 c0.44 0 0.84 0 1.28 0.04 c0.24 0.04 0.48 0.08 0.72 0.24 c0.36 0.28 0.6 0.6 0.64 1.04 c0.04 0.16 0.04 0.32 0.04 0.48 l0 2.52 c0 0.2 -0.04 0.44 -0.08 0.68 c-0.12 0.52 -0.44 0.84 -0.92 1 c-0.36 0.12 -0.68 0.16 -1.04 0.16 c-0.28 0.04 -0.6 0.04 -0.88 0.04 l-13.52 0 z M28.389000000000003 40 c-0.32 0 -0.64 -0.08 -0.96 -0.12 l-0.48 -0.12 c-0.4 -0.16 -0.68 -0.48 -0.8 -0.92 c-0.08 -0.32 -0.16 -0.68 -0.16 -1.04 l0 -1.08 l0 -10.72 l0 -10.72 l0 -1.04 s0.08 -0.72 0.16 -1.08 c0.16 -0.56 0.56 -0.92 1.12 -1.04 c0.16 -0.04 0.32 -0.08 0.48 -0.08 c0.28 0 0.52 -0.04 0.8 -0.04 l3.36 0 c0.32 0 0.64 0.04 0.96 0.04 c0.84 0.12 1.48 0.52 1.88 1.24 c0.12 0.28 0.24 0.52 0.36 0.8 c0.92 2.08 1.8 4.2 2.72 6.28 c0.56 1.28 1.12 2.56 1.68 3.8 c0.16 0.4 0.36 0.76 0.56 1.12 c0.16 0.28 0.32 0.48 0.56 0.64 s0.56 0.08 0.68 -0.12 c0.08 -0.12 0.12 -0.24 0.16 -0.36 c0.12 -0.32 0.16 -0.68 0.16 -1.04 c0.04 -0.72 0.04 -1.44 0.04 -2.12 l0 -6.96 l0 -0.96 c0.04 -0.4 0.08 -0.8 0.16 -1.16 c0.12 -0.56 0.48 -0.88 1.04 -1.04 c0.28 -0.08 0.56 -0.12 0.84 -0.12 c1 -0.04 2 -0.04 3 0 c0.28 0 0.6 0.04 0.88 0.12 c0.52 0.16 0.88 0.52 1 1.08 c0.08 0.36 0.12 0.76 0.12 1.12 c0.04 0.32 0.04 0.64 0.04 1 l0 21.24 c0 0.36 0 0.72 -0.04 1.04 c0 0.44 -0.04 0.84 -0.16 1.24 c-0.16 0.44 -0.44 0.72 -0.84 0.88 c-0.36 0.16 -0.68 0.2 -1.04 0.2 c-1.48 0.04 -2.96 0.04 -4.44 0 c-0.24 0 -0.44 -0.04 -0.68 -0.08 c-0.68 -0.12 -1.2 -0.48 -1.56 -1.04 c-0.16 -0.28 -0.28 -0.52 -0.4 -0.8 c-0.32 -0.68 -0.64 -1.4 -0.96 -2.08 c-0.6 -1.36 -1.2 -2.72 -1.84 -4.08 c-0.36 -0.84 -0.76 -1.68 -1.12 -2.52 c-0.24 -0.52 -0.48 -1 -0.72 -1.52 c-0.2 -0.4 -0.48 -0.76 -0.8 -1.08 c-0.2 -0.2 -0.56 -0.16 -0.76 0.08 c-0.16 0.24 -0.2 0.48 -0.24 0.72 c-0.08 0.8 -0.2 1.6 -0.16 2.4 l0 2.64 c-0.04 1.6 0 3.2 -0.04 4.8 c0 0.4 0 0.8 -0.04 1.16 c-0.08 0.64 -0.52 1.16 -1.16 1.28 c-0.32 0.08 -0.68 0.12 -1.04 0.16 l-2.32 0 z M57.17800000000001 40 c-0.52 0 -1 0 -1.52 -0.12 c-0.28 -0.08 -0.56 -0.2 -0.76 -0.4 c-0.24 -0.24 -0.4 -0.52 -0.44 -0.84 c-0.04 -0.24 -0.08 -0.44 -0.08 -0.68 l0 -1.16 l0 -10.84 l0 -10.8 l0 -1.28 c0.04 -0.24 0.04 -0.52 0.12 -0.76 c0.12 -0.44 0.44 -0.8 0.88 -0.96 c0.2 -0.04 0.44 -0.08 0.64 -0.12 c0.32 -0.04 0.6 -0.04 0.88 -0.04 l7.64 0 c1.8 0 3.52 0.28 5.24 0.76 c1.92 0.52 3.6 1.4 5.04 2.76 c1.04 1 1.84 2.16 2.4 3.48 c0.6 1.32 0.96 2.76 1.12 4.2 c0.16 0.96 0.28 1.92 0.24 2.88 c-0.04 1.4 -0.2 2.76 -0.52 4.12 c-0.44 1.8 -1.2 3.48 -2.32 4.92 c-1 1.32 -2.2 2.36 -3.64 3.16 c-1.76 0.96 -3.64 1.44 -5.64 1.6 c-1.32 0.12 -2.64 0.12 -3.96 0.12 l-5.32 0 z M63.81800000000001 34.36 c0.32 0.04 0.64 0 0.96 -0.08 c2.28 -0.44 3.88 -1.76 4.84 -3.88 c0.56 -1.12 0.8 -2.36 0.88 -3.64 l0 -1.92 c-0.04 -0.96 -0.2 -1.92 -0.48 -2.84 c-0.2 -0.76 -0.52 -1.44 -0.96 -2.08 c-0.4 -0.56 -0.84 -1 -1.4 -1.36 c-0.88 -0.6 -1.92 -0.92 -3 -0.96 c-0.32 -0.04 -0.68 0 -1.04 0.04 c-0.32 0 -0.6 0.16 -0.84 0.4 c-0.32 0.28 -0.52 0.68 -0.56 1.08 c-0.04 0.44 -0.04 0.84 -0.08 1.28 l0 5.6 l0 3.36 c0 0.84 0 1.68 0.04 2.52 c0 0.32 0 0.64 0.04 0.96 c0.12 0.92 0.68 1.44 1.6 1.52 z M93.60700000000001 40.52 c-0.92 -0.08 -1.8 -0.2 -2.68 -0.36 c-1.64 -0.28 -3.12 -0.88 -4.48 -1.76 c-1.6 -1 -2.8 -2.36 -3.68 -4.04 c-0.8 -1.48 -1.24 -3.04 -1.52 -4.68 c-0.2 -1.2 -0.24 -2.44 -0.24 -3.68 l0 -1.24 c0.04 -1.6 0.36 -3.16 0.8 -4.68 c0.44 -1.44 1.12 -2.76 2.04 -3.96 c0.8 -1.08 1.76 -1.96 2.88 -2.72 c1.92 -1.2 4 -1.88 6.28 -1.96 l1.84 0 c1.92 0.08 3.8 0.48 5.56 1.24 c1.88 0.8 3.44 2.08 4.6 3.76 c1 1.48 1.64 3.16 2 4.92 c0.44 2.04 0.56 4.16 0.4 6.24 c-0.2 2.36 -0.72 4.6 -1.88 6.68 c-1.6 2.96 -4.04 4.92 -7.32 5.76 c-1 0.28 -2.04 0.44 -3.04 0.48 c-0.52 0.04 -1.04 0.04 -1.56 0 z M93.04700000000001 34.64 c1.2 0.32 2.32 0.2 3.36 -0.52 c0.36 -0.24 0.68 -0.56 0.96 -0.92 c0.32 -0.44 0.6 -0.92 0.84 -1.44 c0.48 -1.12 0.76 -2.32 0.88 -3.56 l0.12 -1.44 c0.04 -0.4 0.04 -0.84 0.04 -1.24 c-0.08 -1.16 -0.16 -2.32 -0.4 -3.48 c-0.16 -0.84 -0.44 -1.68 -0.88 -2.44 c-0.24 -0.52 -0.56 -0.96 -0.96 -1.32 c-0.68 -0.6 -1.44 -1 -2.32 -1.12 c-1.24 -0.16 -2.32 0.2 -3.2 1.08 c-0.68 0.64 -1.12 1.4 -1.44 2.28 c-0.28 0.76 -0.52 1.6 -0.64 2.4 c-0.12 1 -0.24 2 -0.2 2.96 c-0.04 0.96 0.04 1.84 0.16 2.76 c0.08 0.84 0.28 1.64 0.52 2.44 c0.2 0.64 0.48 1.2 0.84 1.76 c0.6 0.84 1.32 1.48 2.32 1.8 z"></path></g><g id="SvgjsG6115" featureKey="nameFeature-1" transform="matrix(1.0232882550519744,0,0,1.0232882550519744,54.4910125841768,205.29329002647611)" fill="#ffffff"><path d="M9.0312 40.5564 c-0.9032 0.028008 -1.7963 -0.10961 -2.6867 -0.2384 c-0.954 -0.1384 -1.9 -0.33719 -2.848 -0.5172 c-0.38 -0.071992 -0.7516 -0.17801 -1.106 -0.33602 c-0.20762 -0.092812 -0.39363 -0.21562 -0.55524 -0.37801 c-0.2132 -0.21442 -0.33442 -0.4676 -0.35363 -0.7708 c-0.018398 -0.29121 -0.0032031 -0.5792 0.078788 -0.86044 c0.2168 -0.7432 0.488 -1.4652 0.8468 -2.152 c0.05922 -0.1132 0.13203 -0.22199 0.21324 -0.32078 c0.30121 -0.36719 0.6868 -0.57116 1.1672 -0.5904 c0.35762 -0.013984 0.70524 0.042812 1.0516 0.12121 c0.502 0.1132 1.002 0.2368 1.5072 0.3352 c0.4732 0.092384 0.9508 0.16558 1.4284 0.23277 c0.8376 0.1184 1.6692 0.0584 2.494 -0.1184 c0.4104 -0.0884 0.8032 -0.22879 1.1824 -0.41116 c0.4744 -0.22762 0.8612 -0.5628 1.1824 -0.97244 c0.58 -0.74 0.5664 -1.7736 -0.033594 -2.4968 c-0.33039 -0.39801 -0.718 -0.73404 -1.1596 -1.01 c-0.602 -0.3768 -1.2412 -0.6788 -1.8816 -0.9808 c-0.6984 -0.32922 -1.3972 -0.6576 -2.0932 -0.9912 c-0.6684 -0.32039 -1.3016 -0.7024 -1.9268 -1.0996 c-0.7652 -0.4868 -1.4576 -1.0568 -2.0756 -1.7192 c-1.2596 -1.3504 -1.9228 -2.9412 -1.9636 -4.7952 c-0.028789 -1.3156 0.27281 -2.5548 0.8152 -3.7392 c0.5052 -1.1028 1.2656 -2.0116 2.21 -2.7648 c1.176 -0.938 2.5192 -1.5428 3.9604 -1.938 c0.7768 -0.2132 1.5656 -0.37039 2.3688 -0.4476 c0.608 -0.058008 1.2116 -0.1552 1.826 -0.1568 c1.2312 -0.0032031 2.4352 0.19801 3.6296 0.4664 c0.5016 0.11238 0.9968 0.25797 1.4888 0.40956 c0.30641 0.094412 0.6028 0.22281 0.9 0.3452 c0.11801 0.0484 0.23039 0.1152 0.33758 0.18558 c0.6928 0.4528 0.9276 1.0352 0.686 1.8268 c-0.1684 0.5528 -0.3916 1.0892 -0.5984 1.63 c-0.045196 0.11879 -0.11598 0.23 -0.18719 0.33641 c-0.3732 0.5556 -0.88244 0.83956 -1.5616 0.7324 c-0.34879 -0.054804 -0.6948 -0.13281 -1.0368 -0.22121 c-0.7176 -0.18558 -1.4404 -0.33879 -2.1756 -0.434 c-0.7408 -0.096016 -1.4776 -0.084412 -2.2056 0.0916 c-0.24961 0.060392 -0.4948 0.14039 -0.7372 0.22598 c-0.4672 0.16442 -0.84436 0.4584 -1.1616 0.8348 c-0.518 0.616 -0.62084 1.5592 -0.23043 2.264 c0.092384 0.1668 0.21476 0.32039 0.34195 0.464 c0.4108 0.4624 0.8988 0.8272 1.4552 1.0972 c0.8968 0.4356 1.7924 0.8748 2.6948 1.2996 c1.2244 0.576 2.4148 1.212 3.5384 1.968 c0.8356 0.562 1.56 1.254 2.178 2.0368 c0.858 1.0876 1.3096 2.3476 1.3836 3.7416 c0.063984 1.21 -0.13203 2.3716 -0.57324 3.496 c-0.3448 0.8788 -0.828 1.6696 -1.4892 2.3476 c-0.15762 0.16121 -0.31641 0.32043 -0.4736 0.48204 c-1.0036 1.0324 -2.1956 1.7632 -3.532 2.2936 c-1.4796 0.5872 -3.0092 0.9236 -4.5864 1.0828 c-0.5764 0.0584 -1.1508 0.13039 -1.734 0.1132 z M28.029 40 c-0.32 0 -0.64 -0.08 -0.96 -0.12 c-0.16 0 -0.32 -0.04 -0.44 -0.12 c-0.4 -0.12 -0.68 -0.4 -0.8 -0.8 c-0.12 -0.28 -0.2 -0.6 -0.2 -0.92 c-0.04 -0.32 -0.04 -0.64 -0.04 -0.96 l0 -22.24 c0 -0.44 0 -0.92 0.08 -1.36 c0.12 -0.84 0.64 -1.32 1.48 -1.44 c0.24 0 0.52 -0.04 0.76 -0.04 l3.28 0 c0.2 0 0.4 0 0.6 0.04 c0.16 0.04 0.36 0.08 0.56 0.12 c0.48 0.16 0.8 0.52 0.96 1 c0.08 0.36 0.12 0.72 0.12 1.08 c0 0.32 0.04 0.68 0.04 1.04 l0 10.72 l0 10.76 c0 0.36 -0.04 0.68 -0.04 1.04 s-0.04 0.72 -0.16 1.08 c-0.12 0.4 -0.4 0.72 -0.8 0.88 c-0.16 0.04 -0.32 0.12 -0.48 0.12 c-0.32 0.04 -0.64 0.12 -0.96 0.12 l-3 0 z M41.138 39.96 c-0.32 -0.04 -0.64 -0.08 -0.96 -0.2 c-0.48 -0.12 -0.76 -0.44 -0.88 -0.92 c-0.08 -0.36 -0.12 -0.76 -0.16 -1.16 c-0.04 -0.24 -0.04 -0.52 -0.04 -0.76 l0 -22.04 c0 -0.28 0 -0.56 0.04 -0.88 c0 -0.28 0.08 -0.56 0.12 -0.84 c0.12 -0.52 0.48 -0.84 0.96 -1 l0.48 -0.12 c0.16 0 0.32 -0.04 0.48 -0.04 l5.2 0 c0.24 0 0.48 0.04 0.68 0.08 c0.6 0.12 1 0.44 1.28 0.96 c0.2 0.32 0.36 0.68 0.48 1.04 c0.28 0.88 0.56 1.8 0.84 2.68 c0.48 1.48 0.92 3 1.4 4.52 c0.32 0.96 0.6 1.96 0.92 2.96 c0.12 0.36 0.28 0.72 0.44 1.08 c0.08 0.24 0.24 0.44 0.48 0.6 c0.24 0.2 0.6 0.2 0.88 0 c0.16 -0.12 0.28 -0.28 0.36 -0.48 l0.24 -0.6 c0.28 -0.8 0.56 -1.6 0.8 -2.4 c0.64 -2.08 1.32 -4.16 1.96 -6.28 c0.2 -0.6 0.36 -1.2 0.56 -1.84 c0.12 -0.28 0.2 -0.6 0.32 -0.92 c0.12 -0.2 0.24 -0.4 0.36 -0.56 c0.36 -0.44 0.84 -0.72 1.4 -0.8 c0.2 0 0.4 -0.04 0.56 -0.04 l4.96 0 c0.28 0 0.56 0.04 0.84 0.12 c0.72 0.16 1.16 0.64 1.28 1.4 c0.04 0.2 0.04 0.44 0.04 0.64 l0 1.16 l0 10.64 l0 10.84 l0 1.24 c0 0.32 -0.04 0.6 -0.16 0.88 c-0.16 0.44 -0.48 0.76 -0.96 0.88 c-0.32 0.08 -0.68 0.16 -1.04 0.16 c-0.88 0.04 -1.8 0 -2.68 0 c-0.28 0 -0.6 -0.08 -0.88 -0.12 c-0.32 -0.04 -0.6 -0.24 -0.8 -0.48 c-0.2 -0.2 -0.32 -0.4 -0.36 -0.68 c-0.04 -0.2 -0.08 -0.44 -0.08 -0.64 l0 -1.16 l0 -5.72 c0 -0.88 -0.12 -1.72 -0.2 -2.6 c-0.04 -0.24 -0.08 -0.52 -0.2 -0.72 c-0.2 -0.28 -0.44 -0.32 -0.68 -0.12 c-0.08 0.08 -0.2 0.16 -0.28 0.28 c-0.04 0.08 -0.12 0.2 -0.16 0.32 c-0.24 0.56 -0.48 1.12 -0.68 1.72 c-0.32 0.92 -0.6 1.84 -0.92 2.76 c-0.16 0.52 -0.36 1.08 -0.52 1.64 c-0.12 0.32 -0.24 0.6 -0.4 0.88 c-0.2 0.4 -0.52 0.64 -0.96 0.8 c-0.28 0.12 -0.6 0.2 -0.92 0.2 l-2.52 0 c-0.2 0 -0.4 -0.04 -0.56 -0.08 c-0.68 -0.12 -1.12 -0.48 -1.44 -1.08 c-0.16 -0.32 -0.32 -0.68 -0.44 -1.04 c-0.28 -0.84 -0.56 -1.64 -0.84 -2.48 c-0.28 -0.92 -0.6 -1.84 -1 -2.72 c-0.08 -0.16 -0.16 -0.36 -0.28 -0.52 c-0.08 -0.12 -0.2 -0.24 -0.32 -0.36 c-0.2 -0.16 -0.56 -0.08 -0.68 0.16 c-0.04 0.08 -0.08 0.2 -0.12 0.32 c-0.12 0.4 -0.16 0.76 -0.16 1.16 c-0.04 0.72 -0.04 1.44 -0.04 2.12 c0 1.72 0 3.44 -0.04 5.12 c0 0.48 -0.04 0.92 -0.08 1.36 c0 0.2 -0.04 0.4 -0.08 0.56 c-0.16 0.48 -0.44 0.8 -0.92 0.92 c-0.28 0.12 -0.6 0.16 -0.92 0.2 c-1 0.04 -2 0.04 -3 0 z  M82.96700000000001 40.5072 c-1.556 -0.12922 -3.0737 -0.45596 -4.5012 -1.112 c-1.8716 -0.8596 -3.3884 -2.1308 -4.4268 -3.9296 c-0.7556 -1.3088 -1.1944 -2.7236 -1.292 -4.2324 c-0.050392 -0.7744 -0.053592 -1.552 -0.056408 -2.3284 c-0.0067968 -2.1352 -0.0023828 -4.2704 -0.0023828 -6.4056 l0 0 l0 -7.2792 c0 -0.35602 0 -0.7116 0.0076172 -1.0676 c0.0048048 -0.22602 0.012422 -0.4532 0.039219 -0.6776 c0.096408 -0.8156 0.5372 -1.2732 1.3608 -1.4104 c0.22238 -0.037188 0.45 -0.059572 0.6756 -0.060352 c1.2292 -0.0051952 2.4584 -0.0051952 3.688 0.0019922 c0.2248 0.0012109 0.45404 0.022812 0.67404 0.0684 c0.624 0.13 1.0388 0.498 1.2084 1.1228 c0.093592 0.3452 0.1384 0.698 0.14398 1.0552 c0.005586 0.35558 0.0083984 0.7116 0.0083984 1.0676 c0.00078124 4.432 -0.00042968 8.8644 0.0019531 13.296 c0 0.6472 0.010391 1.2944 0.027578 1.9408 c0.018398 0.6848 0.16121 1.3484 0.39043 1.9924 c0.1532 0.4292 0.36 0.82884 0.6644 1.1752 c0.5852 0.6664 1.3384 1.0008 2.198 1.1208 c0.38641 0.053984 0.7744 0.027578 1.1596 -0.038828 c1.1792 -0.20199 1.9836 -0.89436 2.51 -1.936 c0.24961 -0.494 0.39641 -1.024 0.44564 -1.5788 c0.085588 -0.9668 0.16078 -1.9324 0.1584 -2.9052 c-0.010781 -4.4324 -0.0051952 -8.8648 -0.0035938 -13.297 c0 -0.4528 0.008008 -0.906 0.021992 -1.3584 c0.008008 -0.25922 0.046796 -0.51564 0.1448 -0.7592 c0.15359 -0.38121 0.42 -0.6496 0.8088 -0.7844 c0.3384 -0.11719 0.6912 -0.1784 1.0484 -0.17961 c1.2616 -0.0051952 2.5232 -0.0071876 3.7848 0.0048048 c0.25558 0.0028125 0.5172 0.047616 0.7648 0.1148 c0.6564 0.1784 1.0464 0.6188 1.1648 1.2876 c0.039219 0.2216 0.050428 0.45 0.057616 0.6756 c0.011211 0.35558 0.01 0.7116 0.01 1.0676 c0 4.4644 0.00078124 8.9292 -0.00082032 13.394 c0 0.6148 0.005586 1.23 -0.021602 1.844 c-0.056016 1.2676 -0.26801 2.5084 -0.7232 3.6988 c-0.4324 1.1304 -1.0468 2.142 -1.9016 3.0128 c-0.7536 0.7676 -1.5612 1.452 -2.5156 1.9588 c-0.8624 0.4584 -1.768 0.7988 -2.714 1.0328 c-1.6468 0.4076 -3.3208 0.548 -5.0088 0.4076 z M104.31600000000002 40 c-0.36 0 -0.72 0 -1.08 -0.04 c-0.36 0 -0.72 -0.04 -1.04 -0.16 c-0.52 -0.16 -0.88 -0.52 -1 -1.08 c-0.08 -0.24 -0.08 -0.52 -0.12 -0.76 l0 -1.08 l0 -21.84 l0 -0.96 c0 -0.16 0 -0.32 0.04 -0.48 c0.08 -0.88 0.6 -1.4 1.48 -1.52 c0.24 -0.04 0.48 -0.08 0.76 -0.08 l3.28 0 c0.36 0 0.72 0.04 1.04 0.12 c0.6 0.16 0.96 0.52 1.08 1.12 c0.04 0.24 0.08 0.44 0.08 0.68 l0 1.16 l0 7.44 l0 7.44 c0 0.68 0.04 1.36 0.12 2.04 c0.04 0.2 0.04 0.36 0.12 0.56 c0.16 0.52 0.52 0.88 1.04 1.04 c0.2 0.04 0.44 0.08 0.68 0.08 c1.04 0.08 2.12 0.12 3.16 0.12 l3.4 0 c0.36 0 0.72 0 1.08 0.08 c0.6 0.08 1.04 0.44 1.2 1.08 c0.04 0.16 0.08 0.36 0.12 0.56 c0.04 0.88 0.04 1.72 0 2.6 c0 0.24 -0.08 0.44 -0.12 0.68 c-0.16 0.52 -0.48 0.88 -1.04 1 c-0.36 0.08 -0.72 0.16 -1.04 0.16 c-0.32 0.04 -0.68 0.04 -1 0.04 l-12.24 0 z M123.82500000000002 40 c-0.32 0 -0.64 -0.04 -0.96 -0.12 c-0.16 0 -0.32 -0.04 -0.48 -0.12 c-0.4 -0.16 -0.64 -0.48 -0.68 -0.96 c0 -0.2 0 -0.44 0.08 -0.68 c0.08 -0.4 0.2 -0.8 0.32 -1.2 c1.16 -3.4 2.28 -6.84 3.4 -10.28 c1 -2.96 1.96 -5.92 2.92 -8.88 c0.4 -1.16 0.76 -2.32 1.16 -3.48 c0.12 -0.36 0.24 -0.68 0.4 -1 c0.32 -0.76 0.92 -1.12 1.72 -1.24 c0.28 -0.04 0.56 -0.04 0.88 -0.04 l1.92 0 l3.76 0 c0.36 0 0.72 0.04 1.08 0.08 c0.68 0.08 1.2 0.44 1.52 1.04 c0.16 0.36 0.32 0.68 0.44 1.08 c0.44 1.2 0.8 2.44 1.2 3.64 c0.44 1.28 0.84 2.52 1.24 3.76 c0.88 2.72 1.8 5.4 2.68 8.08 c0.8 2.44 1.6 4.92 2.4 7.36 c0.12 0.32 0.2 0.68 0.28 1.04 c0.08 0.2 0.08 0.44 0.12 0.64 c0 0.48 -0.28 0.88 -0.72 1.04 c-0.36 0.16 -0.68 0.2 -1.04 0.2 c-0.44 0.04 -0.84 0.04 -1.28 0.04 l-0.76 0 l-1.56 0 c-0.32 -0.04 -0.68 -0.08 -1.04 -0.12 c-0.76 -0.12 -1.28 -0.56 -1.56 -1.28 c-0.12 -0.28 -0.24 -0.6 -0.32 -0.88 c-0.12 -0.36 -0.24 -0.68 -0.36 -1 c-0.36 -0.84 -0.96 -1.36 -1.88 -1.44 c-0.32 -0.04 -0.6 -0.04 -0.88 -0.04 l-4.64 0 c-0.44 0 -0.84 0 -1.24 0.08 c-0.68 0.12 -1.12 0.48 -1.44 1.04 c-0.24 0.4 -0.36 0.84 -0.52 1.28 c-0.08 0.32 -0.2 0.68 -0.32 1 c-0.12 0.24 -0.24 0.44 -0.44 0.64 c-0.24 0.28 -0.56 0.48 -0.96 0.56 c-0.4 0.12 -0.84 0.16 -1.24 0.16 l-3.2 0 z M135.345 29.64 c0.44 -0.04 0.8 -0.04 1.16 -0.04 c0.28 -0.04 0.56 -0.08 0.84 -0.2 c0.4 -0.2 0.68 -0.48 0.72 -0.96 c0.04 -0.4 -0.04 -0.84 -0.12 -1.24 l-0.48 -1.68 c-0.28 -0.96 -0.56 -1.88 -0.84 -2.84 c-0.08 -0.32 -0.2 -0.64 -0.32 -0.92 c-0.08 -0.16 -0.2 -0.32 -0.32 -0.48 c-0.36 -0.4 -0.76 -0.4 -1.08 0 c-0.12 0.2 -0.24 0.4 -0.32 0.6 c-0.16 0.32 -0.28 0.64 -0.36 1 c-0.4 1.4 -0.8 2.76 -1.2 4.16 c-0.04 0.24 -0.12 0.44 -0.12 0.68 c-0.04 0.2 -0.04 0.44 -0.04 0.64 c0 0.32 0.16 0.56 0.36 0.76 c0.28 0.28 0.6 0.4 0.96 0.44 c0.4 0.04 0.84 0.04 1.16 0.08 z M161.01800000000003 39.995586 c-0.4196 -0.0032031 -0.8366 -0.056796 -1.2422 -0.1684 c-0.506 -0.13879 -0.83884 -0.47596 -0.9944 -0.96676 c-0.076796 -0.24199 -0.10719 -0.50436 -0.12117 -0.75956 c-0.022812 -0.418 -0.02 -0.8376 -0.02 -1.2564 c-0.0012109 -5.0272 -0.00042968 -10.054 -0.0016406 -15.082 c0 -0.4836 0 -0.9672 -0.019609 -1.45 c-0.010781 -0.25602 -0.037188 -0.51724 -0.1032 -0.76364 c-0.16238 -0.6036 -0.5436 -1.0108 -1.1556 -1.188 c-0.3752 -0.1084 -0.7588 -0.14559 -1.1468 -0.14879 c-0.612 -0.0051952 -1.2244 -0.0035938 -1.8368 -0.0071876 c-0.35442 -0.0023828 -0.7092 -0.0023828 -1.0632 -0.018789 c-0.22442 -0.010391 -0.4528 -0.028008 -0.67 -0.080392 c-0.6188 -0.14922 -1.0316 -0.52564 -1.146 -1.1664 c-0.21641 -1.2168 -0.21719 -2.4372 -0.0059764 -3.6552 c0.10441 -0.6004 0.4716 -0.98116 1.0496 -1.1392 c0.2768 -0.075588 0.5696 -0.10797 0.85724 -0.12598 c0.38558 -0.023594 0.7732 -0.018008 1.16 -0.018008 c2.6748 -0.0012109 5.3492 -0.00042968 8.024 -0.00042968 s5.3496 -0.00078124 8.0244 0.00082032 c0.3868 0 0.7748 -0.0060156 1.1596 0.023203 c0.2868 0.021992 0.5788 0.066796 0.8524 0.15238 c0.458 0.1432 0.7644 0.4664 0.9152 0.9248 c0.11199 0.33879 0.1616 0.69116 0.1652 1.0468 c0.0067968 0.6764 0.014414 1.3536 -0.0051952 2.0296 c-0.008008 0.2868 -0.053592 0.58 -0.13359 0.8556 c-0.16558 0.5712 -0.5556 0.94244 -1.138 1.0676 c-0.31238 0.067188 -0.6384 0.086408 -0.9592 0.093592 c-0.6764 0.015195 -1.3532 0.0071876 -2.03 0.011172 c-0.29 0.0016016 -0.5808 -0.004414 -0.86956 0.017578 c-0.25558 0.019609 -0.5156 0.0484 -0.762 0.11602 c-0.6812 0.18719 -1.1192 0.62916 -1.244 1.3316 c-0.072812 0.4112 -0.10402 0.8308 -0.12961 1.2484 c-0.021602 0.3532 -0.0087892 0.7084 -0.0087892 1.0628 c0 4.9308 0 9.8616 -0.0012109 14.792 c0 0.4512 -0.00078124 0.90244 -0.02 1.3532 c-0.0096092 0.22359 -0.034805 0.4532 -0.098788 0.6668 c-0.15801 0.5284 -0.5004 0.8924 -1.0412 1.048 c-0.34281 0.098788 -0.6944 0.15 -1.05 0.15199 c-1.0632 0.005586 -2.1268 0.0079688 -3.19 0.00078124 z M180.48300000000003 40 c-0.6 0 -1.16 0 -1.72 -0.16 c-0.32 -0.08 -0.56 -0.2 -0.76 -0.4 c-0.2 -0.24 -0.36 -0.48 -0.4 -0.76 c-0.04 -0.24 -0.08 -0.44 -0.08 -0.68 l0 -1.16 l0 -10.84 l0 -11 c0 -0.4 0 -0.84 0.04 -1.24 c0 -0.28 0.04 -0.52 0.12 -0.76 c0.16 -0.4 0.4 -0.68 0.8 -0.8 c0.32 -0.12 0.64 -0.16 0.96 -0.16 c0.36 -0.04 0.72 -0.04 1.04 -0.04 l13.56 0 c0.32 0 0.68 0 1.04 0.04 c0.28 0 0.52 0.04 0.76 0.12 c0.56 0.12 0.88 0.52 1 1.04 c0.04 0.2 0.08 0.4 0.08 0.6 l0 2.6 c0 0.16 -0.04 0.32 -0.04 0.48 c-0.12 0.68 -0.6 1.16 -1.28 1.24 c-0.24 0.04 -0.48 0.08 -0.68 0.08 l-1.16 0 l-5.32 0 c-0.36 0 -0.72 0 -1.08 0.04 c-0.32 0 -0.64 0.04 -0.92 0.16 c-0.48 0.16 -0.76 0.48 -0.96 0.92 c0 0.08 -0.04 0.16 -0.08 0.28 c-0.12 0.68 -0.12 1.4 -0.04 2.12 l0.12 0.36 c0.2 0.6 0.6 0.96 1.24 1.08 c0.32 0.08 0.64 0.08 0.96 0.08 l2.32 0 c0.48 0 0.96 0.04 1.44 0.12 c0.16 0.04 0.32 0.04 0.48 0.12 c0.4 0.12 0.72 0.4 0.84 0.84 c0.12 0.32 0.2 0.68 0.2 1.04 l0 2.12 c0 0.32 -0.08 0.64 -0.16 0.96 c-0.16 0.48 -0.48 0.76 -0.96 0.88 c-0.12 0.08 -0.28 0.08 -0.44 0.12 c-0.64 0.04 -1.28 0.12 -1.96 0.12 c-0.6 -0.04 -1.2 -0.04 -1.8 0 c-0.32 0 -0.6 0 -0.88 0.04 c-0.64 0.08 -1.04 0.48 -1.28 1.08 s-0.24 1.24 0 1.88 s0.64 1.04 1.36 1.08 c0.92 0.08 1.84 0.12 2.76 0.16 l4.64 0 c0.44 0 0.84 0 1.28 0.04 c0.24 0.04 0.48 0.08 0.72 0.24 c0.36 0.28 0.6 0.6 0.64 1.04 c0.04 0.16 0.04 0.32 0.04 0.48 l0 2.52 c0 0.2 -0.04 0.44 -0.08 0.68 c-0.12 0.52 -0.44 0.84 -0.92 1 c-0.36 0.12 -0.68 0.16 -1.04 0.16 c-0.28 0.04 -0.6 0.04 -0.88 0.04 l-13.52 0 z"></path></g>
			</g>
		</svg>
	