# Blender 3.6.1
# www.blender.org
mtllib DoorWall.mtl
o DoorWall.001
v -0.008740 0.000000 1.084568
v -0.008740 0.015497 1.084568
v -0.008740 0.015497 1.157681
v -0.008740 0.000000 1.157681
v -0.017694 0.022415 0.905213
v -0.008740 0.015497 0.905213
v -0.008740 0.015497 0.832097
v -0.017694 0.022415 0.832097
v -0.036742 0.374505 1.084568
v -0.036742 0.374505 1.157681
v -0.036742 0.486425 1.157681
v -0.036742 0.486425 1.084568
v -0.036742 0.015497 0.905213
v -0.036742 0.022415 0.905213
v -0.036742 0.022415 0.832097
v -0.036742 0.015497 0.832097
v -0.036742 0.000000 1.084568
v -0.036742 0.000000 1.157681
v -0.036742 0.015497 1.157681
v -0.036742 0.015497 1.084568
v -0.036742 0.486425 0.905213
v -0.017694 0.486425 0.905213
v -0.017694 0.486425 0.832097
v -0.036742 0.486425 0.832097
v -0.008740 0.015497 1.157681
v -0.036742 0.015497 1.157681
v -0.036742 0.000000 1.157681
v -0.008740 0.000000 1.157681
v -0.017694 0.374505 1.157681
v -0.036742 0.374505 1.157681
v -0.036742 0.022415 1.157681
v -0.017694 0.022415 1.157681
v -0.017694 0.022415 1.157681
v -0.036742 0.022415 1.157681
v -0.008740 0.015497 0.832097
v -0.008740 0.000000 0.832097
v -0.036742 0.000000 0.832097
v -0.036742 0.015497 0.832097
v -0.017694 0.374505 0.832097
v -0.017694 0.022415 0.832097
v -0.036742 0.022415 0.832097
v -0.036742 0.374505 0.832097
v -0.017694 0.022415 0.832097
v -0.036742 0.022415 0.832097
v -0.017694 0.374505 1.084568
v -0.017694 0.486425 1.084568
v -0.017694 0.486425 1.157681
v -0.017694 0.374505 1.157681
v -0.017694 0.374505 0.832097
v -0.017694 0.486425 0.832097
v -0.017694 0.486425 0.905213
v -0.017694 0.374505 0.905213
v -0.036742 0.000000 0.832097
v -0.036742 0.000000 0.905213
v -0.036742 0.374505 0.832097
v -0.036742 0.374505 0.905213
v -0.036742 0.486425 0.905213
v -0.036742 0.486425 0.832097
v -0.008740 0.000000 0.832097
v -0.008740 0.015497 0.832097
v -0.008740 0.015497 0.905213
v -0.008740 0.000000 0.905213
v -0.017694 0.022415 1.157681
v -0.008740 0.015497 1.157681
v -0.008740 0.015497 1.084568
v -0.017694 0.022415 1.084568
v -0.036742 0.022415 1.157681
v -0.036742 0.022415 1.084568
v -0.036742 0.486425 1.157681
v -0.017694 0.486425 1.157681
v -0.017694 0.486425 1.084568
v -0.036742 0.486425 1.084568
v -0.036742 0.022415 0.832097
v -0.036742 0.022415 0.905213
v -0.017694 0.022415 0.832097
v -0.017694 0.022415 0.905213
v -0.017694 0.022415 1.084568
v -0.017694 0.022415 1.157681
v -0.017694 0.486425 0.832097
v -0.036742 0.486425 0.832097
v -0.017694 0.486425 1.157681
v -0.036742 0.486425 1.157681
v -0.036742 0.022415 1.084568
v -0.036742 0.022415 1.157681
v -0.017694 0.022415 1.075096
v -0.017694 0.015497 1.075096
v -0.036742 0.365034 0.914684
v -0.017694 0.365034 0.914684
v -0.017694 0.365034 1.075096
v -0.036742 0.365034 1.075096
v -0.036742 0.365034 0.914684
v -0.036742 0.365034 1.075096
v -0.036742 0.374505 1.084568
v -0.036742 0.374505 0.905213
v -0.017694 0.374505 1.084568
v -0.017694 0.365034 1.075096
v -0.017694 0.365034 0.914684
v -0.017694 0.374505 0.905213
v -0.036742 0.015497 1.075096
v -0.036742 0.022415 1.075096
v -0.017694 0.022415 1.075096
v -0.017694 0.015497 1.075096
v -0.036742 0.022415 0.914684
v -0.017694 0.022415 0.914684
v -0.017694 0.365034 0.914684
v -0.036742 0.365034 0.914684
v -0.036742 0.022415 0.914684
v -0.036742 0.022415 0.905213
v -0.036742 0.015497 1.084568
v -0.036742 0.015497 1.075096
v -0.036742 0.000000 1.075096
v -0.036742 0.000000 1.084568
v -0.036742 0.000000 1.075096
v -0.017694 0.000000 1.075096
v -0.008740 0.015497 1.084568
v -0.008740 0.000000 1.084568
v -0.017694 0.000000 1.075096
v -0.017694 0.015497 1.075096
v -0.017694 0.022415 1.075096
v -0.036742 0.022415 1.075096
v -0.036742 0.365034 1.075096
v -0.017694 0.365034 1.075096
v -0.036742 0.015497 0.914684
v -0.036742 0.022415 0.914684
v -0.036742 0.022415 0.905213
v -0.036742 0.015497 0.905213
v -0.036742 0.015497 0.914684
v -0.017694 0.015497 0.914684
v -0.017694 0.022415 0.914684
v -0.036742 0.022415 0.914684
v -0.036742 0.000000 0.914684
v -0.017694 0.000000 0.914684
v -0.036742 0.000000 0.914684
v -0.036742 0.000000 0.905213
v -0.008740 0.015497 0.905213
v -0.017694 0.015497 0.914684
v -0.017694 0.000000 0.914684
v -0.008740 0.000000 0.905213
v -0.017694 0.022415 0.914684
v -0.017694 0.015497 0.914684
v -0.017694 0.022415 0.914684
v -0.017694 0.022415 0.905213
v -0.036742 0.022415 1.084568
v -0.036742 0.022415 1.075096
v -0.017694 0.022415 1.084568
v -0.017694 0.022415 1.075096
v -0.036742 0.022415 1.084568
v -0.036742 0.022415 1.075096
vn 1.0000 -0.0000 -0.0000
vn 0.6114 0.7913 -0.0000
vn 0.7184 0.6691 0.1904
vn 0.6977 0.7011 0.1475
vn -1.0000 -0.0000 -0.0000
vn -0.0000 1.0000 -0.0000
vn -0.0000 -0.0000 1.0000
vn -0.0000 -0.0000 -1.0000
vn 0.7183 0.6691 -0.1904
vn 0.6977 0.7010 -0.1475
vn 0.7803 0.5050 -0.3689
vn -0.0000 -1.0000 -0.0000
vn 0.7267 -0.0000 -0.6870
vn 0.7267 -0.0000 0.6870
vn 0.7803 0.5050 0.3689
vt 0.425151 0.651664
vt 0.426300 0.564757
vt 0.443937 0.567781
vt 0.444996 0.651664
vt 0.458754 0.651411
vt 0.460705 0.565167
vt 0.473616 0.567606
vt 0.473215 0.651602
vt 0.298646 0.548680
vt 0.298646 0.416393
vt 0.385065 0.416393
vt 0.385065 0.548680
vt 0.500223 0.549146
vt 0.500223 0.635568
vt 0.492046 0.635568
vt 0.492046 0.549146
vt 0.527183 0.549146
vt 0.545500 0.549146
vt 0.545500 0.635565
vt 0.527183 0.635565
vt 0.839771 0.385065
vt 0.839771 0.298643
vt 0.862285 0.298643
vt 0.862285 0.385065
vt 0.572460 0.582244
vt 0.554143 0.582244
vt 0.554143 0.549146
vt 0.572460 0.549146
vt 0.839305 0.000233
vt 0.839305 0.416393
vt 0.816791 0.416393
vt 0.816791 0.000233
vt 0.545966 0.571660
vt 0.545966 0.549146
vt 0.591243 0.549146
vt 0.591243 0.582244
vt 0.572927 0.582244
vt 0.572927 0.549146
vt 0.816324 0.416393
vt 0.793810 0.416394
vt 0.793810 0.000233
vt 0.816324 0.000233
vt 0.599420 0.549146
vt 0.599420 0.571660
vt 0.770363 0.132519
vt 0.683945 0.132520
vt 0.683945 0.000233
vt 0.770363 0.000233
vt 0.471953 0.132519
vt 0.385531 0.132520
vt 0.385531 0.000233
vt 0.471953 0.000233
vt 0.518540 0.549146
vt 0.518540 0.635568
vt 0.000233 0.548680
vt 0.000233 0.416393
vt 0.086655 0.416393
vt 0.086655 0.548680
vt 0.491580 0.564956
vt 0.491580 0.651602
vt 0.456993 0.565579
vt 0.458288 0.651464
vt 0.519006 0.635565
vt 0.519006 0.549146
vt 0.839771 0.086652
vt 0.839771 0.000233
vt 0.862285 0.000233
vt 0.862285 0.086652
vt 0.000233 0.000233
vt 0.086655 0.000233
vt 0.471953 0.548679
vt 0.385532 0.548679
vt 0.770363 0.548680
vt 0.683944 0.548680
vt 0.816324 0.548680
vt 0.793810 0.548680
vt 0.839305 0.548680
vt 0.816791 0.548680
vt 0.298646 0.000233
vt 0.385065 0.000233
vt 0.448228 0.553150
vt 0.457198 0.553300
vt 0.793344 0.405199
vt 0.793344 0.594801
vt 0.770830 0.594801
vt 0.770830 0.405199
vt 0.000234 0.965307
vt 0.011429 0.954113
vt 0.201031 0.954113
vt 0.212225 0.965307
vt 0.424684 0.965306
vt 0.212693 0.965306
vt 0.223888 0.954112
vt 0.413490 0.954112
vt 0.568480 0.590887
vt 0.545966 0.590887
vt 0.545966 0.582710
vt 0.568480 0.582710
vt 0.793344 0.999767
vt 0.770830 0.999767
vt 0.000233 0.549148
vt 0.011428 0.549148
vt 0.603122 0.582710
vt 0.603122 0.601027
vt 0.591927 0.601027
vt 0.591927 0.582710
vt 0.568480 0.609204
vt 0.545966 0.609204
vt 0.429667 0.549146
vt 0.770830 0.000233
vt 0.793344 0.000233
vt 0.599887 0.567463
vt 0.611081 0.567463
vt 0.611081 0.575640
vt 0.599887 0.575640
vt 0.591461 0.582710
vt 0.591461 0.590887
vt 0.568947 0.590887
vt 0.568947 0.582710
vt 0.591461 0.609204
vt 0.568947 0.609204
vt 0.599887 0.549146
vt 0.611081 0.549146
vt 0.469642 0.552880
vt 0.488440 0.549146
vt 0.460680 0.552897
vt 0.424684 0.549146
vt 0.413490 0.549146
vt 0.603122 0.609204
vt 0.591927 0.609204
vt 0.223887 0.549146
vt 0.212693 0.549146
vt 0.201032 0.549146
vt 0.212226 0.549146
s 0
usemtl DoorWall
f 4/1/1 1/2/1 2/3/1
f 2/3/1 3/4/1 4/1/1
s 1
f 8/5/2 5/6/3 6/7/4
f 6/7/4 7/8/2 8/5/2
s 0
f 12/9/5 9/10/5 10/11/5
f 10/11/5 11/12/5 12/9/5
f 16/13/5 13/14/5 14/15/5
f 14/15/5 15/16/5 16/13/5
f 20/17/5 17/18/5 18/19/5
f 18/19/5 19/20/5 20/17/5
f 24/21/6 21/22/6 22/23/6
f 22/23/6 23/24/6 24/21/6
f 28/25/7 25/26/7 26/27/7
f 26/27/7 27/28/7 28/25/7
f 32/29/7 29/30/7 30/31/7
f 30/31/7 31/32/7 32/29/7
f 25/26/7 33/33/7 34/34/7
f 34/34/7 26/27/7 25/26/7
f 38/35/8 35/36/8 36/37/8
f 36/37/8 37/38/8 38/35/8
f 42/39/8 39/40/8 40/41/8
f 40/41/8 41/42/8 42/39/8
f 44/43/8 43/44/8 35/36/8
f 35/36/8 38/35/8 44/43/8
f 48/45/1 45/46/1 46/47/1
f 46/47/1 47/48/1 48/45/1
f 52/49/1 49/50/1 50/51/1
f 50/51/1 51/52/1 52/49/1
f 16/13/5 53/53/5 54/54/5
f 54/54/5 13/14/5 16/13/5
f 58/55/5 55/56/5 56/57/5
f 56/57/5 57/58/5 58/55/5
f 62/59/1 59/60/1 60/8/1
f 60/8/1 61/7/1 62/59/1
s 1
f 66/61/9 63/62/2 64/4/2
f 64/4/2 65/3/10 66/61/9
s 0
f 20/17/5 19/20/5 67/63/5
f 67/63/5 68/64/5 20/17/5
f 72/65/6 69/66/6 70/67/6
f 70/67/6 71/68/6 72/65/6
f 21/22/6 72/65/6 71/68/6
f 71/68/6 22/23/6 21/22/6
f 45/46/1 52/49/1 51/52/1
f 51/52/1 46/47/1 45/46/1
f 57/58/5 56/57/5 9/10/5
f 9/10/5 12/9/5 57/58/5
f 55/56/5 73/69/5 74/70/5
f 74/70/5 56/57/5 55/56/5
f 76/71/1 75/72/1 49/50/1
f 49/50/1 52/49/1 76/71/1
f 78/73/1 77/74/1 45/46/1
f 45/46/1 48/45/1 78/73/1
f 80/75/8 79/76/8 39/40/8
f 39/40/8 42/39/8 80/75/8
f 29/30/7 81/77/7 82/78/7
f 82/78/7 30/31/7 29/30/7
f 9/10/5 83/79/5 84/80/5
f 84/80/5 10/11/5 9/10/5
s 1
f 86/81/11 85/82/11 66/61/9
f 66/61/9 65/3/10 86/81/11
s 0
f 90/83/12 87/84/12 88/85/12
f 88/85/12 89/86/12 90/83/12
f 94/87/5 91/88/5 92/89/5
f 92/89/5 93/90/5 94/87/5
f 98/91/1 95/92/1 96/93/1
f 96/93/1 97/94/1 98/91/1
f 102/95/8 99/96/8 100/97/8
f 100/97/8 101/98/8 102/95/8
f 106/84/7 103/99/7 104/100/7
f 104/100/7 105/85/7 106/84/7
f 108/101/5 107/102/5 91/88/5
f 91/88/5 94/87/5 108/101/5
f 112/103/5 109/104/5 110/105/5
f 110/105/5 111/106/5 112/103/5
f 114/107/8 113/108/8 99/96/8
f 99/96/8 102/95/8 114/107/8
f 118/81/13 115/3/13 116/2/13
f 116/2/13 117/109/13 118/81/13
f 122/86/8 119/110/8 120/111/8
f 120/111/8 121/83/8 122/86/8
f 126/112/5 123/113/5 124/114/5
f 124/114/5 125/115/5 126/112/5
f 130/116/7 127/117/7 128/118/7
f 128/118/7 129/119/7 130/116/7
f 127/117/7 131/120/7 132/121/7
f 132/121/7 128/118/7 127/117/7
f 134/122/5 133/123/5 123/113/5
f 123/113/5 126/112/5 134/122/5
f 138/59/14 135/7/14 136/124/14
f 136/124/14 137/125/14 138/59/14
s 1
f 6/7/4 5/6/3 139/126/15
f 139/126/15 140/124/15 6/7/4
s 0
f 142/127/1 98/91/1 97/94/1
f 97/94/1 141/128/1 142/127/1
f 109/104/5 143/129/5 144/130/5
f 144/130/5 110/105/5 109/104/5
f 146/131/1 96/93/1 95/92/1
f 95/92/1 145/132/1 146/131/1
f 148/133/5 147/134/5 93/90/5
f 93/90/5 92/89/5 148/133/5
